Bodoni-06-Fatface-Italic.ufo
<glyph name="exclam" format="1">
  <advance width="877"/>
  <unicode hex="0021"/>
  <outline>
    <contour>
      <point x="896" y="1318" type="curve" smooth="yes"/>
      <point x="896" y="1062"/>
      <point x="608" y="936"/>
      <point x="518" y="616" type="curve"/>
      <point x="479" y="616" type="line"/>
      <point x="540" y="916"/>
      <point x="400" y="946"/>
      <point x="400" y="1198" type="curve" smooth="yes"/>
      <point x="400" y="1370"/>
      <point x="543" y="1516"/>
      <point x="682" y="1516" type="curve" smooth="yes"/>
      <point x="812" y="1516"/>
      <point x="896" y="1420"/>
    </contour>
    <contour>
      <point x="168" y="221" type="curve" smooth="yes"/>
      <point x="168" y="353"/>
      <point x="276" y="460"/>
      <point x="408" y="460" type="curve" smooth="yes"/>
      <point x="540" y="460"/>
      <point x="648" y="353"/>
      <point x="648" y="221" type="curve" smooth="yes"/>
      <point x="648" y="89"/>
      <point x="540" y="-20"/>
      <point x="408" y="-20" type="curve" smooth="yes"/>
      <point x="276" y="-20"/>
      <point x="168" y="89"/>
    </contour>
  </outline>
</glyph>
<glyph name="numbersign" format="1">
  <advance width="1259"/>
  <unicode hex="0023"/>
  <outline>
    <contour>
      <point x="132" y="547" type="line"/>
      <point x="1212" y="547" type="line"/>
      <point x="1212" y="474" type="line"/>
      <point x="132" y="474" type="line"/>
    </contour>
    <contour>
      <point x="232" y="1057" type="line"/>
      <point x="1312" y="1057" type="line"/>
      <point x="1312" y="983" type="line"/>
      <point x="232" y="983" type="line"/>
    </contour>
    <contour>
      <point x="1063" y="1508" type="line"/>
      <point x="1139" y="1510" type="line"/>
      <point x="789" y="-10" type="line"/>
      <point x="713" y="-12" type="line"/>
    </contour>
    <contour>
      <point x="666" y="1510" type="line"/>
      <point x="740" y="1510" type="line"/>
      <point x="391" y="-10" type="line"/>
      <point x="315" y="-10" type="line"/>
    </contour>
  </outline>
</glyph>
<glyph name="dollar" format="1">
  <advance width="1289"/>
  <unicode hex="0024"/>
  <outline>
    <contour>
      <point x="783" y="1660" type="line"/>
      <point x="856" y="1660" type="line"/>
      <point x="437" y="-160" type="line"/>
      <point x="363" y="-160" type="line"/>
    </contour>
    <contour>
      <point x="914" y="1660" type="line"/>
      <point x="986" y="1660" type="line"/>
      <point x="566" y="-160" type="line"/>
      <point x="493" y="-160" type="line"/>
    </contour>
    <contour>
      <point x="615" y="1260" type="curve" smooth="yes"/>
      <point x="615" y="949"/>
      <point x="1230" y="1081"/>
      <point x="1230" y="561" type="curve" smooth="yes"/>
      <point x="1230" y="181"/>
      <point x="832" y="-29"/>
      <point x="550" y="-29" type="curve" smooth="yes"/>
      <point x="279" y="-29"/>
      <point x="61" y="138"/>
      <point x="61" y="359" type="curve" smooth="yes"/>
      <point x="61" y="470"/>
      <point x="132" y="574"/>
      <point x="260" y="574" type="curve" smooth="yes"/>
      <point x="360" y="574"/>
      <point x="448" y="500"/>
      <point x="448" y="393" type="curve" smooth="yes"/>
      <point x="448" y="252"/>
      <point x="351" y="191"/>
      <point x="244" y="191" type="curve" smooth="yes"/>
      <point x="212" y="191"/>
      <point x="209" y="192"/>
      <point x="191" y="194" type="curve"/>
      <point x="252" y="128"/>
      <point x="371" y="45"/>
      <point x="550" y="45" type="curve" smooth="yes"/>
      <point x="762" y="45"/>
      <point x="891" y="131"/>
      <point x="891" y="270" type="curve" smooth="yes"/>
      <point x="891" y="620"/>
      <point x="260" y="451"/>
      <point x="260" y="971" type="curve" smooth="yes"/>
      <point x="260" y="1311"/>
      <point x="633" y="1520"/>
      <point x="895" y="1520" type="curve" smooth="yes"/>
      <point x="1111" y="1520"/>
      <point x="1311" y="1382"/>
      <point x="1311" y="1200" type="curve" smooth="yes"/>
      <point x="1311" y="1108"/>
      <point x="1244" y="1004"/>
      <point x="1116" y="1004" type="curve" smooth="yes"/>
      <point x="1016" y="1004"/>
      <point x="922" y="1067"/>
      <point x="922" y="1189" type="curve" smooth="yes"/>
      <point x="922" y="1309"/>
      <point x="1028" y="1368"/>
      <point x="1116" y="1368" type="curve" smooth="yes"/>
      <point x="1139" y="1368"/>
      <point x="1152" y="1367"/>
      <point x="1164" y="1363" type="curve"/>
      <point x="1120" y="1388"/>
      <point x="1046" y="1439"/>
      <point x="898" y="1439" type="curve" smooth="yes"/>
      <point x="706" y="1439"/>
      <point x="615" y="1367"/>
    </contour>
  </outline>
</glyph>
<glyph name="ampersand" format="1">
  <advance width="1733"/>
  <unicode hex="0026"/>
  <outline>
    <contour>
      <point x="891" y="952" type="line"/>
      <point x="977" y="1018"/>
      <point x="984" y="1107"/>
      <point x="984" y="1271" type="curve" smooth="yes"/>
      <point x="984" y="1394"/>
      <point x="955" y="1453"/>
      <point x="908" y="1453" type="curve" smooth="yes"/>
      <point x="847" y="1453"/>
      <point x="828" y="1371"/>
      <point x="828" y="1245" type="curve" smooth="yes"/>
      <point x="828" y="1175"/>
      <point x="836" y="1076"/>
      <point x="906" y="965" type="curve" smooth="yes"/>
      <point x="1389" y="195" type="line" smooth="yes"/>
      <point x="1432" y="127"/>
      <point x="1475" y="85"/>
      <point x="1555" y="85" type="curve" smooth="yes"/>
      <point x="1613" y="85"/>
      <point x="1646" y="115"/>
      <point x="1681" y="160" type="curve"/>
      <point x="1740" y="141" type="line"/>
      <point x="1702" y="53"/>
      <point x="1614" y="-20"/>
      <point x="1412" y="-20" type="curve" smooth="yes"/>
      <point x="1223" y="-20"/>
      <point x="1060" y="63"/>
      <point x="982" y="182" type="curve" smooth="yes"/>
      <point x="488" y="939" type="line" smooth="yes"/>
      <point x="439" y="1013"/>
      <point x="418" y="1096"/>
      <point x="418" y="1166" type="curve" smooth="yes"/>
      <point x="418" y="1366"/>
      <point x="667" y="1520"/>
      <point x="938" y="1520" type="curve" smooth="yes"/>
      <point x="1151" y="1520"/>
      <point x="1387" y="1416"/>
      <point x="1387" y="1256" type="curve" smooth="yes"/>
      <point x="1387" y="1055"/>
      <point x="1176" y="978"/>
      <point x="922" y="895" type="curve"/>
    </contour>
    <contour>
      <point x="583" y="830" type="curve"/>
      <point x="610" y="769" type="line"/>
      <point x="517" y="720"/>
      <point x="455" y="601"/>
      <point x="455" y="427" type="curve" smooth="yes"/>
      <point x="455" y="226"/>
      <point x="602" y="104"/>
      <point x="830" y="104" type="curve" smooth="yes"/>
      <point x="1242" y="104"/>
      <point x="1629" y="426"/>
      <point x="1629" y="607" type="curve" smooth="yes"/>
      <point x="1629" y="613" type="line"/>
      <point x="1611" y="533"/>
      <point x="1533" y="470"/>
      <point x="1455" y="470" type="curve" smooth="yes"/>
      <point x="1311" y="470"/>
      <point x="1237" y="579"/>
      <point x="1237" y="687" type="curve" smooth="yes"/>
      <point x="1237" y="800"/>
      <point x="1326" y="898"/>
      <point x="1464" y="898" type="curve" smooth="yes"/>
      <point x="1585" y="898"/>
      <point x="1715" y="804"/>
      <point x="1715" y="630" type="curve" smooth="yes"/>
      <point x="1715" y="351"/>
      <point x="1229" y="-20"/>
      <point x="635" y="-20" type="curve" smooth="yes"/>
      <point x="349" y="-20"/>
      <point x="40" y="60"/>
      <point x="40" y="330" type="curve" smooth="yes"/>
      <point x="40" y="609"/>
      <point x="296" y="716"/>
    </contour>
  </outline>
</glyph>
<glyph name="asterisk" format="2">
  <advance width="2600"/>
  <unicode hex="002A"/>
  <outline>
    <contour>
      <point x="1159" y="2671" type="curve" smooth="yes"/>
      <point x="1429" y="2474"/>
      <point x="1261" y="2086"/>
      <point x="1609" y="1902" type="curve"/>
      <point x="1528" y="1780" type="line"/>
      <point x="1139" y="2005"/>
      <point x="848" y="1786"/>
      <point x="565" y="1913" type="curve" smooth="yes"/>
      <point x="323" y="2024"/>
      <point x="315" y="2318"/>
      <point x="442" y="2527" type="curve" smooth="yes"/>
      <point x="581" y="2748"/>
      <point x="921" y="2843"/>
    </contour>
    <contour>
      <point x="537" y="1774" type="curve" smooth="yes"/>
      <point x="840" y="1835"/>
      <point x="1135" y="1685"/>
      <point x="1524" y="1910" type="curve"/>
      <point x="1605" y="1780" type="line"/>
      <point x="1216" y="1555"/>
      <point x="1118" y="1257"/>
      <point x="860" y="1044" type="curve" smooth="yes"/>
      <point x="622" y="847"/>
      <point x="348" y="909"/>
      <point x="221" y="1110" type="curve" smooth="yes"/>
      <point x="78" y="1331"/>
      <point x="218" y="1708"/>
    </contour>
    <contour>
      <point x="946" y="930" type="curve" smooth="yes"/>
      <point x="1003" y="1245"/>
      <point x="1437" y="1392"/>
      <point x="1498" y="1843" type="curve"/>
      <point x="1640" y="1843" type="line"/>
      <point x="1558" y="1311"/>
      <point x="1839" y="1196"/>
      <point x="1839" y="889" type="curve" smooth="yes"/>
      <point x="1839" y="656"/>
      <point x="1589" y="442"/>
      <point x="1323" y="442" type="curve" smooth="yes"/>
      <point x="1098" y="442"/>
      <point x="880" y="582"/>
    </contour>
    <contour>
      <point x="1974" y="1016" type="curve" smooth="yes"/>
      <point x="1704" y="1213"/>
      <point x="1872" y="1601"/>
      <point x="1524" y="1785" type="curve"/>
      <point x="1605" y="1906" type="line"/>
      <point x="1994" y="1681"/>
      <point x="2285" y="1901"/>
      <point x="2568" y="1774" type="curve" smooth="yes"/>
      <point x="2810" y="1663"/>
      <point x="2818" y="1368"/>
      <point x="2691" y="1159" type="curve" smooth="yes"/>
      <point x="2552" y="938"/>
      <point x="2212" y="844"/>
    </contour>
    <contour>
      <point x="2597" y="1913" type="curve" smooth="yes"/>
      <point x="2294" y="1852"/>
      <point x="1998" y="2001"/>
      <point x="1609" y="1776" type="curve"/>
      <point x="1528" y="1906" type="line"/>
      <point x="1917" y="2131"/>
      <point x="2015" y="2429"/>
      <point x="2273" y="2642" type="curve" smooth="yes"/>
      <point x="2511" y="2839"/>
      <point x="2785" y="2777"/>
      <point x="2912" y="2576" type="curve" smooth="yes"/>
      <point x="3055" y="2355"/>
      <point x="2916" y="1979"/>
    </contour>
    <contour>
      <point x="2187" y="2757" type="curve" smooth="yes"/>
      <point x="2130" y="2442"/>
      <point x="1697" y="2294"/>
      <point x="1636" y="1843" type="curve"/>
      <point x="1494" y="1843" type="line"/>
      <point x="1576" y="2375"/>
      <point x="1294" y="2491"/>
      <point x="1294" y="2798" type="curve" smooth="yes"/>
      <point x="1294" y="3031"/>
      <point x="1544" y="3244"/>
      <point x="1810" y="3244" type="curve" smooth="yes"/>
      <point x="2035" y="3244"/>
      <point x="2253" y="3105"/>
    </contour>
  </outline>
</glyph>
<glyph name="comma" format="1">
  <advance width="669"/>
  <unicode hex="002C"/>
  <outline>
    <contour>
      <point x="80" y="218" type="curve" smooth="yes"/>
      <point x="80" y="344"/>
      <point x="197" y="456"/>
      <point x="334" y="456" type="curve" smooth="yes"/>
      <point x="473" y="456"/>
      <point x="594" y="354"/>
      <point x="594" y="168" type="curve" smooth="yes"/>
      <point x="594" y="-148"/>
      <point x="236" y="-312"/>
      <point x="-64" y="-312" type="curve"/>
      <point x="-64" y="-238" type="line"/>
      <point x="180" y="-238"/>
      <point x="457" y="-120"/>
      <point x="506" y="89" type="curve"/>
      <point x="472" y="38"/>
      <point x="377" y="-20"/>
      <point x="307" y="-20" type="curve" smooth="yes"/>
      <point x="181" y="-20"/>
      <point x="80" y="92"/>
    </contour>
  </outline>
</glyph>
<glyph name="two" format="1">
  <advance width="1319"/>
  <unicode hex="0032"/>
  <outline>
    <contour>
      <point x="282" y="1154" type="curve"/>
      <point x="309" y="1215"/>
      <point x="388" y="1264"/>
      <point x="452" y="1264" type="curve" smooth="yes"/>
      <point x="576" y="1264"/>
      <point x="664" y="1178"/>
      <point x="664" y="1062" type="curve" smooth="yes"/>
      <point x="664" y="921"/>
      <point x="533" y="824"/>
      <point x="424" y="824" type="curve" smooth="yes"/>
      <point x="315" y="824"/>
      <point x="189" y="895"/>
      <point x="189" y="1059" type="curve" smooth="yes"/>
      <point x="189" y="1293"/>
      <point x="476" y="1520"/>
      <point x="830" y="1520" type="curve" smooth="yes"/>
      <point x="1032" y="1520"/>
      <point x="1294" y="1460"/>
      <point x="1294" y="1200" type="curve" smooth="yes"/>
      <point x="1294" y="940"/>
      <point x="896" y="752"/>
      <point x="696" y="630" type="curve" smooth="yes"/>
      <point x="352" y="420" type="line"/>
      <point x="1093" y="420" type="line"/>
      <point x="1129" y="570" type="line"/>
      <point x="1202" y="570" type="line"/>
      <point x="1068" y="0" type="line"/>
      <point x="-82" y="0" type="line"/>
      <point x="-14" y="270" type="line"/>
      <point x="477" y="572" type="line" smooth="yes"/>
      <point x="721" y="722"/>
      <point x="850" y="1007"/>
      <point x="850" y="1195" type="curve" smooth="yes"/>
      <point x="850" y="1343"/>
      <point x="782" y="1385"/>
      <point x="626" y="1385" type="curve" smooth="yes"/>
      <point x="458" y="1385"/>
      <point x="315" y="1259"/>
    </contour>
  </outline>
</glyph>
<glyph name="three" format="1">
  <advance width="1261"/>
  <unicode hex="0033"/>
  <outline>
    <contour>
      <point x="279" y="1200" type="curve" smooth="yes"/>
      <point x="279" y="1384"/>
      <point x="498" y="1518"/>
      <point x="742" y="1518" type="curve" smooth="yes"/>
      <point x="1004" y="1518"/>
      <point x="1282" y="1444"/>
      <point x="1282" y="1204" type="curve" smooth="yes"/>
      <point x="1282" y="944"/>
      <point x="958" y="802"/>
      <point x="496" y="802" type="curve"/>
      <point x="496" y="847" type="line"/>
      <point x="814" y="847"/>
      <point x="859" y="1174"/>
      <point x="859" y="1302" type="curve" smooth="yes"/>
      <point x="859" y="1411"/>
      <point x="809" y="1441"/>
      <point x="691" y="1441" type="curve" smooth="yes"/>
      <point x="632" y="1441"/>
      <point x="550" y="1424"/>
      <point x="488" y="1391" type="curve"/>
      <point x="496" y="1393"/>
      <point x="506" y="1393"/>
      <point x="523" y="1393" type="curve" smooth="yes"/>
      <point x="641" y="1393"/>
      <point x="708" y="1297"/>
      <point x="708" y="1188" type="curve" smooth="yes"/>
      <point x="708" y="1068"/>
      <point x="603" y="977"/>
      <point x="494" y="977" type="curve" smooth="yes"/>
      <point x="374" y="977"/>
      <point x="279" y="1078"/>
    </contour>
    <contour>
      <point x="10" y="361" type="curve" smooth="yes"/>
      <point x="10" y="504"/>
      <point x="100" y="602"/>
      <point x="230" y="602" type="curve" smooth="yes"/>
      <point x="350" y="602"/>
      <point x="438" y="502"/>
      <point x="438" y="391" type="curve" smooth="yes"/>
      <point x="438" y="267"/>
      <point x="343" y="180"/>
      <point x="225" y="180" type="curve" smooth="yes"/>
      <point x="183" y="180"/>
      <point x="168" y="183"/>
      <point x="148" y="189" type="curve"/>
      <point x="195" y="132"/>
      <point x="285" y="55"/>
      <point x="441" y="55" type="curve" smooth="yes"/>
      <point x="679" y="55"/>
      <point x="740" y="373"/>
      <point x="740" y="561" type="curve" smooth="yes"/>
      <point x="740" y="709"/>
      <point x="674" y="775"/>
      <point x="496" y="775" type="curve"/>
      <point x="496" y="820" type="line"/>
      <point x="918" y="820"/>
      <point x="1162" y="720"/>
      <point x="1162" y="480" type="curve" smooth="yes"/>
      <point x="1162" y="140"/>
      <point x="784" y="-20"/>
      <point x="462" y="-20" type="curve" smooth="yes"/>
      <point x="157" y="-20"/>
      <point x="10" y="197"/>
    </contour>
  </outline>
</glyph>
<glyph name="five" format="1">
  <advance width="1253"/>
  <unicode hex="0035"/>
  <outline>
    <contour>
      <point x="1172" y="540" type="curve" smooth="yes"/>
      <point x="1172" y="160"/>
      <point x="734" y="-20"/>
      <point x="432" y="-20" type="curve" smooth="yes"/>
      <point x="148" y="-20"/>
      <point x="0" y="134"/>
      <point x="0" y="318" type="curve" smooth="yes"/>
      <point x="0" y="440"/>
      <point x="94" y="542"/>
      <point x="214" y="542" type="curve" smooth="yes"/>
      <point x="323" y="542"/>
      <point x="428" y="450"/>
      <point x="428" y="330" type="curve" smooth="yes"/>
      <point x="428" y="200"/>
      <point x="332" y="120"/>
      <point x="214" y="120" type="curve" smooth="yes"/>
      <point x="171" y="120"/>
      <point x="157" y="131"/>
      <point x="145" y="135" type="curve"/>
      <point x="200" y="98"/>
      <point x="268" y="49"/>
      <point x="412" y="49" type="curve" smooth="yes"/>
      <point x="670" y="49"/>
      <point x="742" y="412"/>
      <point x="742" y="641" type="curve" smooth="yes"/>
      <point x="742" y="774"/>
      <point x="670" y="793"/>
      <point x="572" y="793" type="curve" smooth="yes"/>
      <point x="467" y="793"/>
      <point x="379" y="769"/>
      <point x="309" y="693" type="curve"/>
      <point x="236" y="693" type="line"/>
      <point x="308" y="806"/>
      <point x="474" y="880"/>
      <point x="656" y="880" type="curve" smooth="yes"/>
      <point x="938" y="880"/>
      <point x="1172" y="800"/>
    </contour>
    <contour>
      <point x="1242" y="1080" type="line"/>
      <point x="393" y="1080" type="line"/>
      <point x="259" y="693" type="line"/>
      <point x="189" y="693" type="line"/>
      <point x="457" y="1500" type="line"/>
      <point x="1265" y="1500" type="line"/>
      <point x="1291" y="1609" type="line"/>
      <point x="1363" y="1609" type="line"/>
    </contour>
  </outline>
</glyph>
<glyph name="less" format="1">
  <advance width="1119"/>
  <unicode hex="003C"/>
  <outline>
    <contour>
      <point x="221" y="742" type="line"/>
      <point x="221" y="823" type="line"/>
      <point x="1180" y="1233" type="line"/>
      <point x="1180" y="1152" type="line"/>
    </contour>
    <contour>
      <point x="221" y="727" type="line"/>
      <point x="221" y="812" type="line"/>
      <point x="1000" y="402" type="line"/>
      <point x="1000" y="316" type="line"/>
    </contour>
  </outline>
</glyph>
<glyph name="question" format="1">
  <advance width="1239"/>
  <unicode hex="003F"/>
  <outline>
    <contour>
      <point x="651" y="710" type="curve"/>
      <point x="617" y="559" type="line"/>
      <point x="544" y="559" type="line"/>
      <point x="590" y="768" type="line"/>
      <point x="824" y="830"/>
      <point x="908" y="1094"/>
      <point x="908" y="1300" type="curve" smooth="yes"/>
      <point x="908" y="1407"/>
      <point x="869" y="1445"/>
      <point x="771" y="1445" type="curve" smooth="yes"/>
      <point x="602" y="1445"/>
      <point x="498" y="1368"/>
      <point x="443" y="1302" type="curve"/>
      <point x="464" y="1314"/>
      <point x="488" y="1320"/>
      <point x="514" y="1320" type="curve" smooth="yes"/>
      <point x="612" y="1320"/>
      <point x="708" y="1239"/>
      <point x="708" y="1130" type="curve" smooth="yes"/>
      <point x="708" y="1010"/>
      <point x="603" y="918"/>
      <point x="494" y="918" type="curve" smooth="yes"/>
      <point x="353" y="918"/>
      <point x="300" y="1021"/>
      <point x="300" y="1143" type="curve" smooth="yes"/>
      <point x="300" y="1307"/>
      <point x="528" y="1520"/>
      <point x="792" y="1520" type="curve" smooth="yes"/>
      <point x="1015" y="1520"/>
      <point x="1330" y="1440"/>
      <point x="1330" y="1200" type="curve" smooth="yes"/>
      <point x="1330" y="850"/>
      <point x="962" y="726"/>
    </contour>
    <component base="period" xOffset="298"/>
  </outline>
</glyph>
<glyph name="at" format="1">
  <advance width="2019"/>
  <unicode hex="0040"/>
  <outline>
    <contour>
      <point x="1143" y="712" type="curve" smooth="yes"/>
      <point x="1143" y="388"/>
      <point x="989" y="141"/>
      <point x="729" y="141" type="curve" smooth="yes"/>
      <point x="531" y="141"/>
      <point x="408" y="252"/>
      <point x="408" y="460" type="curve" smooth="yes"/>
      <point x="408" y="760"/>
      <point x="616" y="1059"/>
      <point x="914" y="1059" type="curve" smooth="yes"/>
      <point x="1096" y="1059"/>
      <point x="1143" y="876"/>
    </contour>
    <contour>
      <point x="1078" y="691" type="curve" smooth="yes"/>
      <point x="1078" y="775"/>
      <point x="1069" y="893"/>
      <point x="1015" y="893" type="curve" smooth="yes"/>
      <point x="949" y="893"/>
      <point x="850" y="762"/>
      <point x="850" y="514" type="curve" smooth="yes"/>
      <point x="850" y="380"/>
      <point x="880" y="307"/>
      <point x="928" y="307" type="curve" smooth="yes"/>
      <point x="990" y="307"/>
      <point x="1078" y="435"/>
    </contour>
    <contour>
      <point x="1040" y="420" type="curve" smooth="yes"/>
      <point x="1184" y="1040" type="line"/>
      <point x="1604" y="1040" type="line"/>
      <point x="1460" y="420" type="line" smooth="yes"/>
      <point x="1439" y="322"/>
      <point x="1418" y="247"/>
      <point x="1482" y="247" type="curve" smooth="yes"/>
      <point x="1658" y="247"/>
      <point x="1837" y="493"/>
      <point x="1837" y="802" type="curve" smooth="yes"/>
      <point x="1837" y="1142"/>
      <point x="1641" y="1507"/>
      <point x="1168" y="1507" type="curve" smooth="yes"/>
      <point x="625" y="1507"/>
      <point x="184" y="1012"/>
      <point x="184" y="422" type="curve" smooth="yes"/>
      <point x="184" y="-172"/>
      <point x="504" y="-355"/>
      <point x="838" y="-355" type="curve" smooth="yes"/>
      <point x="1151" y="-355"/>
      <point x="1343" y="-277"/>
      <point x="1523" y="-82" type="curve"/>
      <point x="1570" y="-128" type="line"/>
      <point x="1402" y="-323"/>
      <point x="1164" y="-428"/>
      <point x="838" y="-428" type="curve" smooth="yes"/>
      <point x="472" y="-428"/>
      <point x="109" y="-204"/>
      <point x="109" y="422" type="curve" smooth="yes"/>
      <point x="109" y="1048"/>
      <point x="584" y="1580"/>
      <point x="1170" y="1580" type="curve" smooth="yes"/>
      <point x="1676" y="1580"/>
      <point x="1910" y="1168"/>
      <point x="1910" y="802" type="curve" smooth="yes"/>
      <point x="1910" y="462"/>
      <point x="1724" y="137"/>
      <point x="1322" y="137" type="curve" smooth="yes"/>
      <point x="1024" y="137"/>
      <point x="1013" y="296"/>
    </contour>
  </outline>
</glyph>
<glyph name="A" format="1">
  <advance width="1639"/>
  <unicode hex="0041"/>
  <outline>
    <contour>
      <point x="-100" y="73" type="line"/>
      <point x="340" y="73" type="line"/>
      <point x="340" y="0" type="line"/>
      <point x="-100" y="0" type="line"/>
    </contour>
    <contour>
      <point x="680" y="73" type="line"/>
      <point x="1500" y="73" type="line"/>
      <point x="1500" y="0" type="line"/>
      <point x="680" y="0" type="line"/>
    </contour>
    <contour>
      <point x="359" y="526" type="line"/>
      <point x="1020" y="526" type="line"/>
      <point x="1020" y="453" type="line"/>
      <point x="359" y="453" type="line"/>
    </contour>
    <contour>
      <point x="788" y="1200" type="line"/>
      <point x="98" y="0" type="line"/>
      <point x="14" y="0" type="line"/>
      <point x="896" y="1529" type="line"/>
      <point x="1170" y="1529" type="line"/>
      <point x="1359" y="0" type="line"/>
      <point x="910" y="0" type="line"/>
    </contour>
  </outline>
</glyph>
<glyph name="J" format="1">
  <advance width="1251"/>
  <unicode hex="004A"/>
  <outline>
    <contour>
      <point x="542" y="1500" type="line"/>
      <point x="1441" y="1500" type="line"/>
      <point x="1441" y="1427" type="line"/>
      <point x="542" y="1427" type="line"/>
    </contour>
    <contour>
      <point x="191" y="27" type="curve"/>
      <point x="212" y="24"/>
      <point x="235" y="18"/>
      <point x="282" y="18" type="curve" smooth="yes"/>
      <point x="404" y="18"/>
      <point x="495" y="101"/>
      <point x="559" y="380" type="curve" smooth="yes"/>
      <point x="812" y="1500" type="line"/>
      <point x="1242" y="1500" type="line"/>
      <point x="980" y="338" type="line"/>
      <point x="800" y="98"/>
      <point x="624" y="-61"/>
      <point x="342" y="-61" type="curve" smooth="yes"/>
      <point x="88" y="-61"/>
      <point x="-70" y="70"/>
      <point x="-70" y="250" type="curve" smooth="yes"/>
      <point x="-70" y="374"/>
      <point x="24" y="500"/>
      <point x="184" y="500" type="curve" smooth="yes"/>
      <point x="314" y="500"/>
      <point x="417" y="405"/>
      <point x="417" y="262" type="curve" smooth="yes"/>
      <point x="417" y="121"/>
      <point x="322" y="27"/>
      <point x="194" y="27" type="curve" smooth="yes"/>
      <point x="193" y="27"/>
      <point x="192" y="27"/>
    </contour>
  </outline>
</glyph>
<glyph name="K" format="2">
  <advance width="3469"/>
  <unicode hex="004B"/>
  <outline>
    <contour>
      <point x="-184" y="150" type="line"/>
      <point x="1372" y="150" type="line"/>
      <point x="1372" y="0" type="line"/>
      <point x="-184" y="0" type="line"/>
    </contour>
    <contour>
      <point x="492" y="3072" type="line"/>
      <point x="2130" y="3072" type="line"/>
      <point x="2130" y="2922" type="line"/>
      <point x="492" y="2922" type="line"/>
    </contour>
    <contour>
      <point x="860" y="3072" type="line"/>
      <point x="1741" y="3072" type="line"/>
      <point x="1044" y="0" type="line"/>
      <point x="164" y="0" type="line"/>
    </contour>
    <contour>
      <point x="869" y="889" type="line"/>
      <point x="631" y="889" type="line"/>
      <point x="3248" y="3064" type="line"/>
      <point x="3465" y="3064" type="line"/>
    </contour>
    <contour>
      <point x="1565" y="150" type="line"/>
      <point x="3228" y="150" type="line"/>
      <point x="3228" y="0" type="line"/>
      <point x="1565" y="0" type="line"/>
    </contour>
    <contour>
      <point x="3715" y="2922" type="line"/>
      <point x="2732" y="2922" type="line"/>
      <point x="2732" y="3072" type="line"/>
      <point x="3715" y="3072" type="line"/>
    </contour>
    <contour>
      <point x="2908" y="0" type="line"/>
      <point x="1929" y="0" type="line"/>
      <point x="1405" y="1516" type="line"/>
      <point x="2146" y="2101" type="line"/>
    </contour>
  </outline>
</glyph>
<glyph name="M" format="2">
  <advance width="4027"/>
  <unicode hex="004D"/>
  <outline>
    <contour>
      <point x="2245" y="150" type="line"/>
      <point x="3740" y="150" type="line"/>
      <point x="3740" y="0" type="line"/>
      <point x="2245" y="0" type="line"/>
    </contour>
    <contour>
      <point x="4052" y="2922" type="line"/>
      <point x="3413" y="0" type="line"/>
      <point x="2532" y="0" type="line"/>
      <point x="3188" y="3072" type="line"/>
      <point x="4314" y="3072" type="line"/>
      <point x="4314" y="2922" type="line"/>
    </contour>
    <contour>
      <point x="2063" y="1229" type="line"/>
      <point x="3070" y="3072" type="line"/>
      <point x="3241" y="3072" type="line"/>
      <point x="1533" y="-41" type="line"/>
      <point x="1362" y="-41" type="line"/>
      <point x="879" y="3072" type="line"/>
      <point x="1764" y="3072" type="line"/>
    </contour>
    <contour>
      <point x="782" y="2922" type="line"/>
      <point x="492" y="2922" type="line"/>
      <point x="492" y="3072" type="line"/>
      <point x="957" y="3072" type="line"/>
      <point x="301" y="0" type="line"/>
      <point x="143" y="0" type="line"/>
    </contour>
    <contour>
      <point x="-123" y="150" type="line"/>
      <point x="541" y="150" type="line"/>
      <point x="541" y="0" type="line"/>
      <point x="-123" y="0" type="line"/>
    </contour>
  </outline>
</glyph>
<glyph name="N" format="1">
  <advance width="1572"/>
  <unicode hex="004E"/>
  <outline>
    <contour>
      <point x="1529" y="1500" type="line"/>
      <point x="1606" y="1500" type="line"/>
      <point x="1260" y="-20" type="line"/>
      <point x="1157" y="-20" type="line"/>
      <point x="473" y="1500" type="line"/>
      <point x="983" y="1500" type="line"/>
      <point x="1352" y="718" type="line"/>
    </contour>
    <contour>
      <point x="1289" y="1500" type="line"/>
      <point x="1797" y="1500" type="line"/>
      <point x="1797" y="1427" type="line"/>
      <point x="1289" y="1427" type="line"/>
    </contour>
    <contour>
      <point x="-80" y="73" type="line"/>
      <point x="404" y="73" type="line"/>
      <point x="404" y="0" type="line"/>
      <point x="-80" y="0" type="line"/>
    </contour>
    <contour>
      <point x="438" y="1427" type="line"/>
      <point x="240" y="1427" type="line"/>
      <point x="240" y="1500" type="line"/>
      <point x="527" y="1500" type="line"/>
      <point x="188" y="0" type="line"/>
      <point x="109" y="0" type="line"/>
    </contour>
  </outline>
</glyph>
<glyph name="P" format="1">
  <advance width="1469"/>
  <unicode hex="0050"/>
  <outline>
    <contour>
      <point x="420" y="1500" type="line"/>
      <point x="850" y="1500" type="line"/>
      <point x="500" y="0" type="line"/>
      <point x="70" y="0" type="line"/>
    </contour>
    <contour>
      <point x="-90" y="73" type="line"/>
      <point x="700" y="73" type="line"/>
      <point x="700" y="0" type="line"/>
      <point x="-90" y="0" type="line"/>
    </contour>
    <contour>
      <point x="850" y="627" type="curve" smooth="yes"/>
      <point x="630" y="627" type="line"/>
      <point x="630" y="700" type="line"/>
      <point x="750" y="700" type="line" smooth="yes"/>
      <point x="982" y="700"/>
      <point x="1074" y="1025"/>
      <point x="1074" y="1243" type="curve" smooth="yes"/>
      <point x="1074" y="1361"/>
      <point x="1042" y="1427"/>
      <point x="950" y="1427" type="curve" smooth="yes"/>
      <point x="240" y="1427" type="line"/>
      <point x="240" y="1500" type="line"/>
      <point x="1050" y="1500" type="line" smooth="yes"/>
      <point x="1312" y="1500"/>
      <point x="1529" y="1404"/>
      <point x="1529" y="1164" type="curve" smooth="yes"/>
      <point x="1529" y="864"/>
      <point x="1252" y="627"/>
    </contour>
  </outline>
</glyph>
<glyph name="R" format="1">
  <advance width="1639"/>
  <unicode hex="0052"/>
  <outline>
    <contour>
      <point x="1471" y="23" type="line"/>
      <point x="1399" y="-4"/>
      <point x="1300" y="-20"/>
      <point x="1189" y="-20" type="curve" smooth="yes"/>
      <point x="543" y="-20"/>
      <point x="1242" y="733"/>
      <point x="750" y="733" type="curve" smooth="yes"/>
      <point x="660" y="733" type="line"/>
      <point x="660" y="770" type="line"/>
      <point x="891" y="770" type="line" smooth="yes"/>
      <point x="1677" y="770"/>
      <point x="1154" y="72"/>
      <point x="1360" y="72" type="curve" smooth="yes"/>
      <point x="1402" y="72"/>
      <point x="1421" y="84"/>
      <point x="1448" y="96" type="curve"/>
    </contour>
    <contour>
      <point x="460" y="1500" type="line"/>
      <point x="891" y="1500" type="line"/>
      <point x="540" y="0" type="line"/>
      <point x="109" y="0" type="line"/>
    </contour>
    <contour>
      <point x="-70" y="73" type="line"/>
      <point x="760" y="73" type="line"/>
      <point x="760" y="0" type="line"/>
      <point x="-70" y="0" type="line"/>
    </contour>
    <contour>
      <point x="870" y="764" type="curve" smooth="yes"/>
      <point x="660" y="764" type="line"/>
      <point x="660" y="807" type="line"/>
      <point x="770" y="807" type="line" smooth="yes"/>
      <point x="1062" y="807"/>
      <point x="1130" y="1121"/>
      <point x="1130" y="1279" type="curve" smooth="yes"/>
      <point x="1130" y="1377"/>
      <point x="1090" y="1427"/>
      <point x="930" y="1427" type="curve" smooth="yes"/>
      <point x="260" y="1427" type="line"/>
      <point x="260" y="1500" type="line"/>
      <point x="1070" y="1500" type="line" smooth="yes"/>
      <point x="1332" y="1500"/>
      <point x="1561" y="1421"/>
      <point x="1561" y="1200" type="curve" smooth="yes"/>
      <point x="1561" y="921"/>
      <point x="1272" y="764"/>
    </contour>
  </outline>
</glyph>
<glyph name="U" format="1">
  <advance width="1506"/>
  <unicode hex="0055"/>
  <outline>
    <contour>
      <point x="1273" y="1500" type="line"/>
      <point x="1697" y="1500" type="line"/>
      <point x="1697" y="1427" type="line"/>
      <point x="1273" y="1427" type="line"/>
    </contour>
    <contour>
      <point x="234" y="1500" type="line"/>
      <point x="1044" y="1500" type="line"/>
      <point x="1044" y="1427" type="line"/>
      <point x="234" y="1427" type="line"/>
    </contour>
    <contour>
      <point x="1464" y="1500" type="line"/>
      <point x="1537" y="1500" type="line"/>
      <point x="1297" y="460" type="line" smooth="yes"/>
      <point x="1225" y="146"/>
      <point x="980" y="-29"/>
      <point x="664" y="-29" type="curve" smooth="yes"/>
      <point x="338" y="-29"/>
      <point x="108" y="132"/>
      <point x="184" y="460" type="curve" smooth="yes"/>
      <point x="424" y="1500" type="line"/>
      <point x="854" y="1500" type="line"/>
      <point x="613" y="480" type="line" smooth="yes"/>
      <point x="554" y="230"/>
      <point x="555" y="73"/>
      <point x="784" y="73" type="curve" smooth="yes"/>
      <point x="952" y="73"/>
      <point x="1159" y="172"/>
      <point x="1225" y="460" type="curve" smooth="yes"/>
    </contour>
  </outline>
</glyph>
<glyph name="V" format="2">
  <advance width="3406"/>
  <unicode hex="0056"/>
  <outline>
    <contour>
      <point x="3816" y="2922" type="line"/>
      <point x="2847" y="2922" type="line"/>
      <point x="2847" y="3072" type="line"/>
      <point x="3816" y="3072" type="line"/>
    </contour>
    <contour>
      <point x="2150" y="2922" type="line"/>
      <point x="471" y="2922" type="line"/>
      <point x="471" y="3072" type="line"/>
      <point x="2150" y="3072" type="line"/>
    </contour>
    <contour>
      <point x="1929" y="614" type="line"/>
      <point x="3342" y="3072" type="line"/>
      <point x="3513" y="3072" type="line"/>
      <point x="1706" y="-61" type="line"/>
      <point x="1147" y="-61" type="line"/>
      <point x="758" y="3072" type="line"/>
      <point x="1679" y="3072" type="line"/>
    </contour>
  </outline>
</glyph>
<glyph name="W" format="1">
  <advance width="2488"/>
  <unicode hex="0057"/>
  <outline>
    <contour>
      <point x="1070" y="406" type="line"/>
      <point x="1404" y="954" type="line"/>
      <point x="1485" y="954" type="line"/>
      <point x="899" y="-20" type="line"/>
      <point x="656" y="-20" type="line"/>
      <point x="374" y="1500" type="line"/>
      <point x="878" y="1500" type="line"/>
    </contour>
    <contour>
      <point x="1625" y="834" type="line"/>
      <point x="1544" y="834" type="line"/>
      <point x="1954" y="1500" type="line"/>
      <point x="2035" y="1500" type="line"/>
    </contour>
    <contour>
      <point x="2689" y="1427" type="line"/>
      <point x="2289" y="1427" type="line"/>
      <point x="2289" y="1500" type="line"/>
      <point x="2689" y="1500" type="line"/>
    </contour>
    <contour>
      <point x="2213" y="1427" type="line"/>
      <point x="230" y="1427" type="line"/>
      <point x="230" y="1500" type="line"/>
      <point x="2213" y="1500" type="line"/>
    </contour>
    <contour>
      <point x="1793" y="404" type="line"/>
      <point x="2473" y="1500" type="line"/>
      <point x="2554" y="1500" type="line"/>
      <point x="1617" y="-20" type="line"/>
      <point x="1435" y="-20" type="line"/>
      <point x="1152" y="1500" type="line"/>
      <point x="1593" y="1500" type="line"/>
    </contour>
  </outline>
</glyph>
<glyph name="bracketleft" format="2">
  <advance width="1658"/>
  <unicode hex="005B"/>
  <outline>
    <contour>
      <point x="819" y="3195" type="line"/>
      <point x="2089" y="3195" type="line"/>
      <point x="2089" y="3045" type="line"/>
      <point x="1562" y="3045" type="line"/>
      <point x="773" y="-464" type="line"/>
      <point x="1229" y="-464" type="line"/>
      <point x="1229" y="-614" type="line"/>
      <point x="-41" y="-614" type="line"/>
    </contour>
  </outline>
</glyph>
<glyph name="grave" format="1">
  <advance width="829"/>
  <unicode hex="0060"/>
  <outline>
    <contour>
      <point x="568" y="1359" type="line" smooth="yes"/>
      <point x="469" y="1344"/>
      <point x="378" y="1412"/>
      <point x="378" y="1510" type="curve" smooth="yes"/>
      <point x="378" y="1608"/>
      <point x="486" y="1695"/>
      <point x="588" y="1656" type="curve" smooth="yes"/>
      <point x="1006" y="1496" type="line"/>
      <point x="996" y="1424" type="line"/>
    </contour>
  </outline>
</glyph>
<glyph name="a" format="1">
  <advance width="1379"/>
  <unicode hex="0061"/>
  <outline>
    <contour>
      <point x="753" y="608" type="curve" smooth="yes"/>
      <point x="753" y="713"/>
      <point x="718" y="777"/>
      <point x="676" y="777" type="curve" smooth="yes"/>
      <point x="588" y="777"/>
      <point x="448" y="538"/>
      <point x="448" y="270" type="curve" smooth="yes"/>
      <point x="448" y="202"/>
      <point x="476" y="162"/>
      <point x="518" y="162" type="curve" smooth="yes"/>
      <point x="620" y="162"/>
      <point x="753" y="400"/>
    </contour>
    <contour>
      <point x="809" y="618" type="curve" smooth="yes"/>
      <point x="809" y="402"/>
      <point x="639" y="-20"/>
      <point x="357" y="-20" type="curve" smooth="yes"/>
      <point x="218" y="-20"/>
      <point x="40" y="60"/>
      <point x="40" y="320" type="curve" smooth="yes"/>
      <point x="40" y="720"/>
      <point x="354" y="938"/>
      <point x="572" y="938" type="curve" smooth="yes"/>
      <point x="744" y="938"/>
      <point x="809" y="817"/>
    </contour>
    <contour>
      <point x="1330" y="326" type="line"/>
      <point x="1254" y="126"/>
      <point x="1116" y="-20"/>
      <point x="884" y="-20" type="curve" smooth="yes"/>
      <point x="720" y="-20"/>
      <point x="680" y="44"/>
      <point x="680" y="146" type="curve" smooth="yes"/>
      <point x="680" y="156"/>
      <point x="681" y="177"/>
      <point x="684" y="189" type="curve" smooth="yes"/>
      <point x="721" y="363" type="line"/>
      <point x="770" y="525" type="line"/>
      <point x="782" y="648" type="line"/>
      <point x="859" y="920" type="line"/>
      <point x="1227" y="920" type="line"/>
      <point x="1018" y="186" type="line" smooth="yes"/>
      <point x="1015" y="174"/>
      <point x="1014" y="160"/>
      <point x="1014" y="150" type="curve" smooth="yes"/>
      <point x="1014" y="129"/>
      <point x="1025" y="111"/>
      <point x="1050" y="111" type="curve" smooth="yes"/>
      <point x="1109" y="111"/>
      <point x="1212" y="216"/>
      <point x="1258" y="348" type="curve"/>
    </contour>
  </outline>
</glyph>
<glyph name="c" format="1">
  <advance width="1067"/>
  <unicode hex="0063"/>
  <outline>
    <contour>
      <point x="833" y="852" type="curve"/>
      <point x="804" y="858"/>
      <point x="789" y="861"/>
      <point x="756" y="861" type="curve" smooth="yes"/>
      <point x="558" y="861"/>
      <point x="448" y="532"/>
      <point x="448" y="284" type="curve" smooth="yes"/>
      <point x="448" y="140"/>
      <point x="491" y="102"/>
      <point x="559" y="102" type="curve" smooth="yes"/>
      <point x="629" y="102"/>
      <point x="702" y="144"/>
      <point x="822" y="286" type="curve"/>
      <point x="898" y="286" type="line"/>
      <point x="766" y="93"/>
      <point x="621" y="-20"/>
      <point x="398" y="-20" type="curve" smooth="yes"/>
      <point x="216" y="-20"/>
      <point x="40" y="60"/>
      <point x="40" y="300" type="curve" smooth="yes"/>
      <point x="40" y="680"/>
      <point x="353" y="939"/>
      <point x="695" y="939" type="curve" smooth="yes"/>
      <point x="879" y="939"/>
      <point x="1038" y="836"/>
      <point x="1038" y="672" type="curve" smooth="yes"/>
      <point x="1038" y="550"/>
      <point x="954" y="458"/>
      <point x="834" y="458" type="curve" smooth="yes"/>
      <point x="725" y="458"/>
      <point x="620" y="530"/>
      <point x="620" y="650" type="curve" smooth="yes"/>
      <point x="620" y="780"/>
      <point x="736" y="852"/>
      <point x="814" y="852" type="curve" smooth="yes"/>
      <point x="820" y="852"/>
      <point x="825" y="853"/>
    </contour>
  </outline>
</glyph>
<glyph name="d" format="1">
  <advance width="1419"/>
  <unicode hex="0064"/>
  <outline>
    <contour>
      <point x="1370" y="326" type="line"/>
      <point x="1294" y="126"/>
      <point x="1146" y="-20"/>
      <point x="929" y="-20" type="curve" smooth="yes"/>
      <point x="775" y="-20"/>
      <point x="680" y="25"/>
      <point x="680" y="166" type="curve" smooth="yes"/>
      <point x="680" y="176"/>
      <point x="682" y="198"/>
      <point x="684" y="210" type="curve" smooth="yes"/>
      <point x="721" y="363" type="line"/>
      <point x="770" y="525" type="line"/>
      <point x="782" y="648" type="line"/>
      <point x="965" y="1427" type="line"/>
      <point x="794" y="1427" type="line"/>
      <point x="794" y="1500" type="line"/>
      <point x="1359" y="1500" type="line"/>
      <point x="1058" y="186" type="line" smooth="yes"/>
      <point x="1055" y="174"/>
      <point x="1054" y="159"/>
      <point x="1054" y="149" type="curve" smooth="yes"/>
      <point x="1054" y="128"/>
      <point x="1065" y="111"/>
      <point x="1090" y="111" type="curve" smooth="yes"/>
      <point x="1149" y="111"/>
      <point x="1253" y="216"/>
      <point x="1299" y="348" type="curve"/>
    </contour>
    <contour>
      <point x="753" y="608" type="curve" smooth="yes"/>
      <point x="753" y="713"/>
      <point x="718" y="777"/>
      <point x="676" y="777" type="curve" smooth="yes"/>
      <point x="588" y="777"/>
      <point x="448" y="538"/>
      <point x="448" y="270" type="curve" smooth="yes"/>
      <point x="448" y="202"/>
      <point x="476" y="162"/>
      <point x="518" y="162" type="curve" smooth="yes"/>
      <point x="620" y="162"/>
      <point x="753" y="400"/>
    </contour>
    <contour>
      <point x="809" y="618" type="curve" smooth="yes"/>
      <point x="809" y="402"/>
      <point x="639" y="-20"/>
      <point x="357" y="-20" type="curve" smooth="yes"/>
      <point x="218" y="-20"/>
      <point x="40" y="60"/>
      <point x="40" y="320" type="curve" smooth="yes"/>
      <point x="40" y="720"/>
      <point x="354" y="938"/>
      <point x="572" y="938" type="curve" smooth="yes"/>
      <point x="744" y="938"/>
      <point x="809" y="817"/>
    </contour>
  </outline>
</glyph>
<glyph name="e" format="1">
  <advance width="1127"/>
  <unicode hex="0065"/>
  <outline>
    <contour>
      <point x="448" y="215" type="curve" smooth="yes"/>
      <point x="448" y="127"/>
      <point x="500" y="85"/>
      <point x="578" y="85" type="curve" smooth="yes"/>
      <point x="664" y="85"/>
      <point x="806" y="161"/>
      <point x="902" y="286" type="curve"/>
      <point x="979" y="286" type="line"/>
      <point x="881" y="132"/>
      <point x="681" y="-20"/>
      <point x="458" y="-20" type="curve" smooth="yes"/>
      <point x="235" y="-20"/>
      <point x="40" y="60"/>
      <point x="40" y="300" type="curve" smooth="yes"/>
      <point x="40" y="666"/>
      <point x="380" y="939"/>
      <point x="702" y="939" type="curve" smooth="yes"/>
      <point x="906" y="939"/>
      <point x="1088" y="870"/>
      <point x="1088" y="725" type="curve" smooth="yes"/>
      <point x="1088" y="465"/>
      <point x="653" y="377"/>
      <point x="430" y="377" type="curve"/>
      <point x="430" y="431" type="line"/>
      <point x="508" y="431"/>
      <point x="771" y="526"/>
      <point x="771" y="794" type="curve" smooth="yes"/>
      <point x="771" y="839"/>
      <point x="750" y="872"/>
      <point x="710" y="872" type="curve" smooth="yes"/>
      <point x="612" y="872"/>
      <point x="448" y="503"/>
    </contour>
  </outline>
</glyph>
<glyph name="f" format="1">
  <advance width="1007"/>
  <unicode hex="0066"/>
  <outline>
    <contour>
      <point x="182" y="920" type="line"/>
      <point x="1002" y="920" type="line"/>
      <point x="1002" y="847" type="line"/>
      <point x="182" y="847" type="line"/>
    </contour>
    <contour>
      <point x="1059" y="1438" type="curve"/>
      <point x="1045" y="1440"/>
      <point x="1028" y="1443"/>
      <point x="1010" y="1443" type="curve" smooth="yes"/>
      <point x="869" y="1443"/>
      <point x="784" y="1324"/>
      <point x="742" y="1080" type="curve" smooth="yes"/>
      <point x="550" y="-23" type="line" smooth="yes"/>
      <point x="482" y="-412"/>
      <point x="214" y="-520"/>
      <point x="-46" y="-520" type="curve" smooth="yes"/>
      <point x="-269" y="-520"/>
      <point x="-400" y="-386"/>
      <point x="-400" y="-262" type="curve" smooth="yes"/>
      <point x="-400" y="-140"/>
      <point x="-328" y="-59"/>
      <point x="-208" y="-59" type="curve" smooth="yes"/>
      <point x="-99" y="-59"/>
      <point x="6" y="-126"/>
      <point x="6" y="-246" type="curve" smooth="yes"/>
      <point x="6" y="-312"/>
      <point x="-19" y="-353"/>
      <point x="-45" y="-381" type="curve" smooth="yes"/>
      <point x="-68" y="-406"/>
      <point x="-103" y="-428"/>
      <point x="-141" y="-438" type="curve"/>
      <point x="-127" y="-440"/>
      <point x="-110" y="-443"/>
      <point x="-92" y="-443" type="curve" smooth="yes"/>
      <point x="49" y="-443"/>
      <point x="134" y="-324"/>
      <point x="176" y="-80" type="curve" smooth="yes"/>
      <point x="368" y="1023" type="line" smooth="yes"/>
      <point x="436" y="1412"/>
      <point x="704" y="1520"/>
      <point x="964" y="1520" type="curve" smooth="yes"/>
      <point x="1187" y="1520"/>
      <point x="1318" y="1386"/>
      <point x="1318" y="1262" type="curve" smooth="yes"/>
      <point x="1318" y="1140"/>
      <point x="1246" y="1059"/>
      <point x="1126" y="1059" type="curve" smooth="yes"/>
      <point x="1017" y="1059"/>
      <point x="912" y="1126"/>
      <point x="912" y="1246" type="curve" smooth="yes"/>
      <point x="912" y="1312"/>
      <point x="938" y="1353"/>
      <point x="963" y="1381" type="curve" smooth="yes"/>
      <point x="986" y="1406"/>
      <point x="1021" y="1428"/>
    </contour>
  </outline>
</glyph>
<glyph name="h" format="1">
  <advance width="1359"/>
  <unicode hex="0068"/>
  <outline>
    <contour>
      <point x="764" y="609" type="line" smooth="yes"/>
      <point x="816" y="761"/>
      <point x="835" y="830"/>
      <point x="783" y="830" type="curve" smooth="yes"/>
      <point x="722" y="830"/>
      <point x="578" y="653"/>
      <point x="502" y="346" type="curve"/>
      <point x="449" y="346" type="line"/>
      <point x="545" y="651"/>
      <point x="641" y="939"/>
      <point x="887" y="939" type="curve" smooth="yes"/>
      <point x="1101" y="939"/>
      <point x="1226" y="808"/>
      <point x="1154" y="594" type="curve" smooth="yes"/>
      <point x="1010" y="158" type="line" smooth="yes"/>
      <point x="1006" y="146"/>
      <point x="1004" y="132"/>
      <point x="1004" y="122" type="curve" smooth="yes"/>
      <point x="1004" y="101"/>
      <point x="1017" y="84"/>
      <point x="1042" y="84" type="curve" smooth="yes"/>
      <point x="1112" y="84"/>
      <point x="1198" y="216"/>
      <point x="1244" y="348" type="curve"/>
      <point x="1316" y="326" type="line"/>
      <point x="1240" y="126"/>
      <point x="1131" y="-20"/>
      <point x="904" y="-20" type="curve" smooth="yes"/>
      <point x="720" y="-20"/>
      <point x="628" y="42"/>
      <point x="628" y="168" type="curve" smooth="yes"/>
      <point x="628" y="197"/>
      <point x="631" y="223"/>
      <point x="639" y="244" type="curve" smooth="yes"/>
    </contour>
    <contour>
      <point x="383" y="1427" type="line"/>
      <point x="260" y="1427" type="line"/>
      <point x="260" y="1500" type="line"/>
      <point x="779" y="1500" type="line"/>
      <point x="420" y="0" type="line"/>
      <point x="40" y="0" type="line"/>
    </contour>
  </outline>
</glyph>
<glyph name="j" format="1">
  <advance width="693"/>
  <unicode hex="006A"/>
  <outline>
    <contour>
      <point x="294" y="1300" type="curve" smooth="yes"/>
      <point x="294" y="1426"/>
      <point x="388" y="1520"/>
      <point x="514" y="1520" type="curve" smooth="yes"/>
      <point x="640" y="1520"/>
      <point x="734" y="1426"/>
      <point x="734" y="1300" type="curve" smooth="yes"/>
      <point x="734" y="1174"/>
      <point x="640" y="1080"/>
      <point x="514" y="1080" type="curve" smooth="yes"/>
      <point x="388" y="1080"/>
      <point x="294" y="1174"/>
    </contour>
    <contour>
      <point x="-189" y="-434" type="curve"/>
      <point x="-166" y="-439"/>
      <point x="-140" y="-443"/>
      <point x="-124" y="-443" type="curve" smooth="yes"/>
      <point x="76" y="-443"/>
      <point x="78" y="-200"/>
      <point x="135" y="40" type="curve" smooth="yes"/>
      <point x="288" y="847" type="line"/>
      <point x="116" y="847" type="line"/>
      <point x="116" y="920" type="line"/>
      <point x="686" y="920" type="line"/>
      <point x="490" y="-23" type="line" smooth="yes"/>
      <point x="438" y="-273"/>
      <point x="147" y="-520"/>
      <point x="-113" y="-520" type="curve" smooth="yes"/>
      <point x="-295" y="-520"/>
      <point x="-460" y="-405"/>
      <point x="-460" y="-271" type="curve" smooth="yes"/>
      <point x="-460" y="-149"/>
      <point x="-356" y="-59"/>
      <point x="-236" y="-59" type="curve" smooth="yes"/>
      <point x="-127" y="-59"/>
      <point x="-34" y="-140"/>
      <point x="-34" y="-234" type="curve" smooth="yes"/>
      <point x="-34" y="-293"/>
      <point x="-63" y="-345"/>
      <point x="-87" y="-370" type="curve" smooth="yes"/>
      <point x="-118" y="-404"/>
      <point x="-158" y="-428"/>
    </contour>
  </outline>
</glyph>
<glyph name="k" format="1">
  <advance width="1373"/>
  <unicode hex="006B"/>
  <outline>
    <contour>
      <point x="1320" y="326" type="line"/>
      <point x="1244" y="126"/>
      <point x="1124" y="-20"/>
      <point x="912" y="-20" type="curve" smooth="yes"/>
      <point x="748" y="-20"/>
      <point x="632" y="25"/>
      <point x="632" y="166" type="curve" smooth="yes"/>
      <point x="632" y="176"/>
      <point x="635" y="198"/>
      <point x="637" y="210" type="curve" smooth="yes"/>
      <point x="650" y="279" type="line" smooth="yes"/>
      <point x="673" y="395"/>
      <point x="724" y="518"/>
      <point x="676" y="518" type="curve" smooth="yes"/>
      <point x="634" y="518"/>
      <point x="586" y="448"/>
      <point x="568" y="380" type="curve"/>
      <point x="504" y="380" type="line"/>
      <point x="559" y="544"/>
      <point x="636" y="621"/>
      <point x="792" y="621" type="curve" smooth="yes"/>
      <point x="931" y="621"/>
      <point x="1075" y="502"/>
      <point x="1014" y="242" type="curve" smooth="yes"/>
      <point x="998" y="145" type="line" smooth="yes"/>
      <point x="996" y="136"/>
      <point x="996" y="131"/>
      <point x="996" y="127" type="curve" smooth="yes"/>
      <point x="996" y="106"/>
      <point x="1011" y="96"/>
      <point x="1036" y="96" type="curve" smooth="yes"/>
      <point x="1102" y="96"/>
      <point x="1202" y="216"/>
      <point x="1248" y="348" type="curve"/>
    </contour>
    <contour>
      <point x="551" y="425" type="curve"/>
      <point x="598" y="479" type="line"/>
      <point x="609" y="458"/>
      <point x="629" y="453"/>
      <point x="649" y="453" type="curve" smooth="yes"/>
      <point x="729" y="453"/>
      <point x="727" y="597"/>
      <point x="779" y="725" type="curve" smooth="yes"/>
      <point x="836" y="862"/>
      <point x="935" y="939"/>
      <point x="1070" y="939" type="curve" smooth="yes"/>
      <point x="1200" y="939"/>
      <point x="1334" y="843"/>
      <point x="1334" y="698" type="curve" smooth="yes"/>
      <point x="1334" y="589"/>
      <point x="1252" y="498"/>
      <point x="1143" y="498" type="curve" smooth="yes"/>
      <point x="1034" y="498"/>
      <point x="962" y="592"/>
      <point x="962" y="678" type="curve" smooth="yes"/>
      <point x="962" y="774"/>
      <point x="1043" y="852"/>
      <point x="1139" y="852" type="curve" smooth="yes"/>
      <point x="1143" y="852"/>
      <point x="1147" y="853"/>
      <point x="1153" y="852" type="curve"/>
      <point x="1139" y="858"/>
      <point x="1118" y="867"/>
      <point x="1066" y="867" type="curve" smooth="yes"/>
      <point x="1000" y="867"/>
      <point x="906" y="842"/>
      <point x="854" y="712" type="curve" smooth="yes"/>
      <point x="799" y="575"/>
      <point x="784" y="383"/>
      <point x="649" y="383" type="curve" smooth="yes"/>
      <point x="601" y="383"/>
      <point x="571" y="400"/>
    </contour>
    <contour>
      <point x="430" y="1427" type="line"/>
      <point x="268" y="1427" type="line"/>
      <point x="268" y="1500" type="line"/>
      <point x="828" y="1500" type="line"/>
      <point x="480" y="0" type="line"/>
      <point x="100" y="0" type="line"/>
    </contour>
  </outline>
</glyph>
<glyph name="n" format="2">
  <advance width="2785"/>
  <unicode hex="006E"/>
  <outline>
    <contour>
      <point x="516" y="1734" type="line"/>
      <point x="265" y="1734" type="line"/>
      <point x="265" y="1884" type="line"/>
      <point x="1330" y="1884" type="line"/>
      <point x="860" y="0" type="line"/>
      <point x="82" y="0" type="line"/>
    </contour>
    <contour>
      <point x="1565" y="1249" type="line" smooth="yes"/>
      <point x="1671" y="1560"/>
      <point x="1709" y="1701"/>
      <point x="1603" y="1701" type="curve" smooth="yes"/>
      <point x="1480" y="1701"/>
      <point x="1184" y="1336"/>
      <point x="1028" y="709" type="curve"/>
      <point x="920" y="709" type="line"/>
      <point x="1117" y="1332"/>
      <point x="1311" y="1925"/>
      <point x="1815" y="1925" type="curve" smooth="yes"/>
      <point x="2253" y="1925"/>
      <point x="2510" y="1655"/>
      <point x="2363" y="1217" type="curve" smooth="yes"/>
      <point x="2069" y="324" type="line" smooth="yes"/>
      <point x="2060.56" y="299.148"/>
      <point x="2056" y="270"/>
      <point x="2056" y="250" type="curve" smooth="yes"/>
      <point x="2056" y="205"/>
      <point x="2081" y="172"/>
      <point x="2134" y="172" type="curve" smooth="yes"/>
      <point x="2279" y="172"/>
      <point x="2455" y="442"/>
      <point x="2549" y="712" type="curve"/>
      <point x="2696" y="668" type="line"/>
      <point x="2540" y="258"/>
      <point x="2316" y="-41"/>
      <point x="1851" y="-41" type="curve" smooth="yes"/>
      <point x="1475" y="-41"/>
      <point x="1286" y="86"/>
      <point x="1286" y="344" type="curve" smooth="yes"/>
      <point x="1286" y="405"/>
      <point x="1291.87" y="456.078"/>
      <point x="1307" y="500" type="curve" smooth="yes"/>
    </contour>
  </outline>
</glyph>
<glyph name="o" format="1">
  <advance width="1183"/>
  <unicode hex="006F"/>
  <outline>
    <contour>
      <point x="479" y="-20" type="curve" smooth="yes"/>
      <point x="277" y="-20"/>
      <point x="40" y="100"/>
      <point x="40" y="340" type="curve" smooth="yes"/>
      <point x="40" y="720"/>
      <point x="354" y="939"/>
      <point x="676" y="939" type="curve" smooth="yes"/>
      <point x="878" y="939"/>
      <point x="1113" y="820"/>
      <point x="1113" y="580" type="curve" smooth="yes"/>
      <point x="1113" y="200"/>
      <point x="801" y="-20"/>
    </contour>
    <contour>
      <point x="479" y="55" type="curve" smooth="yes"/>
      <point x="618" y="55"/>
      <point x="746" y="498"/>
      <point x="746" y="746" type="curve" smooth="yes"/>
      <point x="746" y="834"/>
      <point x="724" y="865"/>
      <point x="676" y="865" type="curve" smooth="yes"/>
      <point x="537" y="865"/>
      <point x="408" y="422"/>
      <point x="408" y="174" type="curve" smooth="yes"/>
      <point x="408" y="86"/>
      <point x="431" y="55"/>
    </contour>
  </outline>
</glyph>
<glyph name="r" format="1">
  <advance width="1133"/>
  <unicode hex="0072"/>
  <outline>
    <contour>
      <point x="1174" y="678" type="curve" smooth="yes"/>
      <point x="1174" y="560"/>
      <point x="1095" y="456"/>
      <point x="958" y="456" type="curve" smooth="yes"/>
      <point x="832" y="456"/>
      <point x="740" y="542"/>
      <point x="740" y="666" type="curve" smooth="yes"/>
      <point x="740" y="727"/>
      <point x="758" y="754"/>
      <point x="773" y="778" type="curve" smooth="yes"/>
      <point x="788" y="802"/>
      <point x="838" y="846"/>
      <point x="873" y="861" type="curve"/>
      <point x="838" y="856"/>
      <point x="797" y="845"/>
      <point x="740" y="793" type="curve" smooth="yes"/>
      <point x="648" y="710"/>
      <point x="566" y="541"/>
      <point x="518" y="346" type="curve"/>
      <point x="473" y="346" type="line"/>
      <point x="521" y="590"/>
      <point x="646" y="939"/>
      <point x="910" y="939" type="curve" smooth="yes"/>
      <point x="1042" y="939"/>
      <point x="1174" y="836"/>
    </contour>
    <contour>
      <point x="262" y="847" type="line"/>
      <point x="130" y="847" type="line"/>
      <point x="130" y="920" type="line"/>
      <point x="650" y="920" type="line"/>
      <point x="439" y="0" type="line"/>
      <point x="61" y="0" type="line"/>
    </contour>
  </outline>
</glyph>
<glyph name="s" format="1">
  <advance width="1043"/>
  <unicode hex="0073"/>
  <outline>
    <contour>
      <point x="725" y="850" type="curve"/>
      <point x="698" y="860"/>
      <point x="638" y="865"/>
      <point x="578" y="865" type="curve" smooth="yes"/>
      <point x="461" y="865"/>
      <point x="424" y="824"/>
      <point x="424" y="772" type="curve" smooth="yes"/>
      <point x="424" y="612"/>
      <point x="874" y="590"/>
      <point x="874" y="324" type="curve" smooth="yes"/>
      <point x="874" y="136"/>
      <point x="674" y="-23"/>
      <point x="420" y="-23" type="curve" smooth="yes"/>
      <point x="102" y="-23"/>
      <point x="0" y="121"/>
      <point x="0" y="230" type="curve" smooth="yes"/>
      <point x="0" y="332"/>
      <point x="80" y="395"/>
      <point x="160" y="395" type="curve" smooth="yes"/>
      <point x="230" y="395"/>
      <point x="318" y="342"/>
      <point x="318" y="242" type="curve" smooth="yes"/>
      <point x="318" y="186"/>
      <point x="296" y="159"/>
      <point x="272" y="137" type="curve" smooth="yes"/>
      <point x="247" y="113"/>
      <point x="208" y="96"/>
      <point x="176" y="93" type="curve"/>
      <point x="215" y="71"/>
      <point x="265" y="49"/>
      <point x="420" y="49" type="curve" smooth="yes"/>
      <point x="561" y="49"/>
      <point x="629" y="88"/>
      <point x="629" y="150" type="curve" smooth="yes"/>
      <point x="629" y="284"/>
      <point x="152" y="321"/>
      <point x="152" y="613" type="curve" smooth="yes"/>
      <point x="152" y="811"/>
      <point x="373" y="938"/>
      <point x="559" y="938" type="curve" smooth="yes"/>
      <point x="834" y="938"/>
      <point x="943" y="834"/>
      <point x="943" y="721" type="curve" smooth="yes"/>
      <point x="943" y="639"/>
      <point x="885" y="576"/>
      <point x="805" y="576" type="curve" smooth="yes"/>
      <point x="735" y="576"/>
      <point x="650" y="628"/>
      <point x="650" y="718" type="curve" smooth="yes"/>
      <point x="650" y="769"/>
      <point x="668" y="799"/>
      <point x="680" y="814" type="curve" smooth="yes"/>
      <point x="693" y="830"/>
      <point x="712" y="847"/>
    </contour>
  </outline>
</glyph>
<glyph name="t" format="2">
  <advance width="1740"/>
  <unicode hex="0074"/>
  <outline>
    <contour>
      <point x="246" y="1884" type="line"/>
      <point x="1761" y="1884" type="line"/>
      <point x="1761" y="1734" type="line"/>
      <point x="246" y="1734" type="line"/>
    </contour>
    <contour>
      <point x="1630" y="668" type="line"/>
      <point x="1474" y="258"/>
      <point x="1191" y="-41"/>
      <point x="716" y="-41" type="curve" smooth="yes"/>
      <point x="381" y="-41"/>
      <point x="209" y="53"/>
      <point x="209" y="340" type="curve" smooth="yes"/>
      <point x="209" y="360"/>
      <point x="214.582" y="404.6"/>
      <point x="221" y="430" type="curve" smooth="yes"/>
      <point x="692" y="2294" type="line"/>
      <point x="1466" y="2294" type="line"/>
      <point x="988" y="381" type="line" smooth="yes"/>
      <point x="984" y="356"/>
      <point x="980" y="328"/>
      <point x="980" y="308" type="curve" smooth="yes"/>
      <point x="980" y="263"/>
      <point x="1000" y="230"/>
      <point x="1053" y="230" type="curve" smooth="yes"/>
      <point x="1183" y="230"/>
      <point x="1389" y="442"/>
      <point x="1483" y="712" type="curve"/>
    </contour>
  </outline>
</glyph>
<glyph name="u" format="1">
  <advance width="1427"/>
  <unicode hex="0075"/>
  <outline>
    <contour>
      <point x="654" y="920" type="line"/>
      <point x="510" y="305" type="line" smooth="yes"/>
      <point x="474" y="147"/>
      <point x="444" y="90"/>
      <point x="496" y="90" type="curve" smooth="yes"/>
      <point x="557" y="90"/>
      <point x="699" y="267"/>
      <point x="775" y="574" type="curve"/>
      <point x="828" y="574" type="line"/>
      <point x="732" y="269"/>
      <point x="635" y="-20"/>
      <point x="389" y="-20" type="curve" smooth="yes"/>
      <point x="196" y="-20"/>
      <point x="92" y="118"/>
      <point x="128" y="282" type="curve" smooth="yes"/>
      <point x="255" y="847" type="line"/>
      <point x="130" y="847" type="line"/>
      <point x="130" y="920" type="line"/>
    </contour>
    <contour>
      <point x="1378" y="326" type="line"/>
      <point x="1302" y="126"/>
      <point x="1159" y="-20"/>
      <point x="932" y="-20" type="curve" smooth="yes"/>
      <point x="768" y="-20"/>
      <point x="686" y="25"/>
      <point x="686" y="166" type="curve" smooth="yes"/>
      <point x="686" y="176"/>
      <point x="687" y="198"/>
      <point x="689" y="210" type="curve" smooth="yes"/>
      <point x="852" y="920" type="line"/>
      <point x="1234" y="920" type="line"/>
      <point x="1064" y="186" type="line" smooth="yes"/>
      <point x="1061" y="174"/>
      <point x="1060" y="159"/>
      <point x="1060" y="149" type="curve" smooth="yes"/>
      <point x="1060" y="128"/>
      <point x="1071" y="111"/>
      <point x="1096" y="111" type="curve" smooth="yes"/>
      <point x="1155" y="111"/>
      <point x="1261" y="216"/>
      <point x="1307" y="348" type="curve"/>
    </contour>
  </outline>
</glyph>
<glyph name="v" format="1">
  <advance width="1371"/>
  <unicode hex="0076"/>
  <outline>
    <contour>
      <point x="654" y="317" type="line" smooth="yes"/>
      <point x="630" y="159"/>
      <point x="606" y="81"/>
      <point x="717" y="81" type="curve" smooth="yes"/>
      <point x="860" y="81"/>
      <point x="983" y="187"/>
      <point x="1078" y="283" type="curve" smooth="yes"/>
      <point x="1168" y="374"/>
      <point x="1234" y="513"/>
      <point x="1254" y="617" type="curve"/>
      <point x="1233" y="578"/>
      <point x="1142" y="510"/>
      <point x="1066" y="510" type="curve" smooth="yes"/>
      <point x="946" y="510"/>
      <point x="854" y="616"/>
      <point x="854" y="725" type="curve" smooth="yes"/>
      <point x="854" y="845"/>
      <point x="952" y="938"/>
      <point x="1086" y="938" type="curve" smooth="yes"/>
      <point x="1232" y="938"/>
      <point x="1332" y="831"/>
      <point x="1332" y="688" type="curve" smooth="yes"/>
      <point x="1332" y="325"/>
      <point x="939" y="-20"/>
      <point x="613" y="-20" type="curve" smooth="yes"/>
      <point x="359" y="-20"/>
      <point x="235" y="120"/>
      <point x="273" y="322" type="curve" smooth="yes"/>
      <point x="350" y="734" type="line" smooth="yes"/>
      <point x="352" y="746"/>
      <point x="354" y="761"/>
      <point x="354" y="771" type="curve" smooth="yes"/>
      <point x="354" y="792"/>
      <point x="341" y="809"/>
      <point x="316" y="809" type="curve" smooth="yes"/>
      <point x="232" y="809"/>
      <point x="156" y="705"/>
      <point x="99" y="573" type="curve"/>
      <point x="29" y="594" type="line"/>
      <point x="125" y="794"/>
      <point x="224" y="939"/>
      <point x="486" y="939" type="curve" smooth="yes"/>
      <point x="660" y="939"/>
      <point x="718" y="878"/>
      <point x="718" y="773" type="curve" smooth="yes"/>
      <point x="718" y="744"/>
      <point x="718" y="729"/>
      <point x="712" y="695" type="curve" smooth="yes"/>
    </contour>
  </outline>
</glyph>
<glyph name="w" format="1">
  <advance width="2017"/>
  <unicode hex="0077"/>
  <outline>
    <contour>
      <point x="576" y="322" type="line" smooth="yes"/>
      <point x="524" y="168"/>
      <point x="540" y="92"/>
      <point x="632" y="92" type="curve" smooth="yes"/>
      <point x="748" y="92"/>
      <point x="862" y="267"/>
      <point x="938" y="574" type="curve"/>
      <point x="990" y="574" type="line"/>
      <point x="914" y="269"/>
      <point x="820" y="-20"/>
      <point x="494" y="-20" type="curve" smooth="yes"/>
      <point x="260" y="-20"/>
      <point x="123" y="87"/>
      <point x="189" y="282" type="curve" smooth="yes"/>
      <point x="344" y="734" type="line" smooth="yes"/>
      <point x="348" y="746"/>
      <point x="350" y="761"/>
      <point x="350" y="771" type="curve" smooth="yes"/>
      <point x="350" y="792"/>
      <point x="337" y="809"/>
      <point x="312" y="809" type="curve" smooth="yes"/>
      <point x="234" y="809"/>
      <point x="159" y="704"/>
      <point x="102" y="572" type="curve"/>
      <point x="29" y="594" type="line"/>
      <point x="125" y="794"/>
      <point x="215" y="939"/>
      <point x="477" y="939" type="curve" smooth="yes"/>
      <point x="631" y="939"/>
      <point x="723" y="890"/>
      <point x="723" y="764" type="curve" smooth="yes"/>
      <point x="723" y="735"/>
      <point x="716" y="709"/>
      <point x="712" y="695" type="curve" smooth="yes"/>
    </contour>
    <contour>
      <point x="1020" y="920" type="line"/>
      <point x="1400" y="920" type="line"/>
      <point x="1271" y="378" type="line" smooth="yes"/>
      <point x="1231" y="210"/>
      <point x="1241" y="83"/>
      <point x="1389" y="83" type="curve" smooth="yes"/>
      <point x="1632" y="83"/>
      <point x="1855" y="431"/>
      <point x="1884" y="578" type="curve" smooth="yes"/>
      <point x="1884" y="580"/>
      <point x="1885" y="584"/>
      <point x="1885" y="588" type="curve"/>
      <point x="1855" y="549"/>
      <point x="1802" y="510"/>
      <point x="1710" y="510" type="curve" smooth="yes"/>
      <point x="1569" y="510"/>
      <point x="1498" y="616"/>
      <point x="1498" y="725" type="curve" smooth="yes"/>
      <point x="1498" y="845"/>
      <point x="1606" y="938"/>
      <point x="1730" y="938" type="curve" smooth="yes"/>
      <point x="1835" y="938"/>
      <point x="1979" y="870"/>
      <point x="1979" y="688" type="curve" smooth="yes"/>
      <point x="1979" y="467"/>
      <point x="1719" y="-20"/>
      <point x="1309" y="-20" type="curve" smooth="yes"/>
      <point x="1111" y="-20"/>
      <point x="887" y="55"/>
      <point x="887" y="355" type="curve"/>
    </contour>
  </outline>
</glyph>
<glyph name="x" format="1">
  <advance width="1431"/>
  <unicode hex="0078"/>
  <outline>
    <contour>
      <point x="752" y="500" type="line"/>
      <point x="872" y="695"/>
      <point x="1003" y="939"/>
      <point x="1221" y="939" type="curve" smooth="yes"/>
      <point x="1383" y="939"/>
      <point x="1462" y="812"/>
      <point x="1462" y="708" type="curve" smooth="yes"/>
      <point x="1462" y="597"/>
      <point x="1382" y="508"/>
      <point x="1266" y="508" type="curve" smooth="yes"/>
      <point x="1146" y="508"/>
      <point x="1076" y="612"/>
      <point x="1076" y="702" type="curve" smooth="yes"/>
      <point x="1076" y="757"/>
      <point x="1098" y="794"/>
      <point x="1113" y="814" type="curve" smooth="yes"/>
      <point x="1127" y="832"/>
      <point x="1147" y="850"/>
      <point x="1162" y="861" type="curve"/>
      <point x="1117" y="851"/>
      <point x="1066" y="812"/>
      <point x="1037" y="785" type="curve" smooth="yes"/>
      <point x="1004" y="754"/>
      <point x="930" y="656"/>
      <point x="814" y="467" type="curve"/>
    </contour>
    <contour>
      <point x="709" y="420" type="line"/>
      <point x="589" y="225"/>
      <point x="460" y="-20"/>
      <point x="242" y="-20" type="curve" smooth="yes"/>
      <point x="80" y="-20"/>
      <point x="0" y="109"/>
      <point x="0" y="213" type="curve" smooth="yes"/>
      <point x="0" y="324"/>
      <point x="79" y="412"/>
      <point x="195" y="412" type="curve" smooth="yes"/>
      <point x="315" y="412"/>
      <point x="386" y="309"/>
      <point x="386" y="219" type="curve" smooth="yes"/>
      <point x="386" y="164"/>
      <point x="364" y="126"/>
      <point x="349" y="106" type="curve" smooth="yes"/>
      <point x="335" y="88"/>
      <point x="314" y="70"/>
      <point x="299" y="59" type="curve"/>
      <point x="344" y="69"/>
      <point x="396" y="108"/>
      <point x="425" y="135" type="curve" smooth="yes"/>
      <point x="458" y="166"/>
      <point x="531" y="264"/>
      <point x="647" y="453" type="curve"/>
    </contour>
    <contour>
      <point x="1320" y="218" type="line"/>
      <point x="1256" y="58"/>
      <point x="1144" y="-20"/>
      <point x="960" y="-20" type="curve" smooth="yes"/>
      <point x="767" y="-20"/>
      <point x="705" y="49"/>
      <point x="648" y="186" type="curve" smooth="yes"/>
      <point x="580" y="352"/>
      <point x="499" y="634"/>
      <point x="447" y="779" type="curve" smooth="yes"/>
      <point x="439" y="800"/>
      <point x="434" y="828"/>
      <point x="398" y="828" type="curve" smooth="yes"/>
      <point x="336" y="828"/>
      <point x="286" y="752"/>
      <point x="252" y="660" type="curve"/>
      <point x="184" y="698" type="line"/>
      <point x="246" y="858"/>
      <point x="346" y="939"/>
      <point x="550" y="939" type="curve" smooth="yes"/>
      <point x="743" y="939"/>
      <point x="797" y="875"/>
      <point x="854" y="738" type="curve" smooth="yes"/>
      <point x="924" y="564"/>
      <point x="991" y="327"/>
      <point x="1061" y="134" type="curve" smooth="yes"/>
      <point x="1069" y="113"/>
      <point x="1091" y="86"/>
      <point x="1116" y="86" type="curve" smooth="yes"/>
      <point x="1162" y="86"/>
      <point x="1219" y="158"/>
      <point x="1253" y="250" type="curve"/>
    </contour>
  </outline>
</glyph>
<glyph name="y" format="1">
  <advance width="1421"/>
  <unicode hex="0079"/>
  <outline>
    <contour>
      <point x="721" y="-254" type="curve"/>
      <point x="535" y="58"/>
      <point x="408" y="604"/>
      <point x="353" y="749" type="curve" smooth="yes"/>
      <point x="345" y="770"/>
      <point x="325" y="801"/>
      <point x="289" y="801" type="curve" smooth="yes"/>
      <point x="237" y="801"/>
      <point x="186" y="772"/>
      <point x="148" y="661" type="curve"/>
      <point x="76" y="693" type="line"/>
      <point x="142" y="873"/>
      <point x="298" y="939"/>
      <point x="462" y="939" type="curve" smooth="yes"/>
      <point x="622" y="939"/>
      <point x="706" y="869"/>
      <point x="748" y="732" type="curve" smooth="yes"/>
      <point x="805" y="552"/>
      <point x="870" y="239"/>
      <point x="1000" y="46" type="curve"/>
      <point x="910" y="-58"/>
      <point x="819" y="-158"/>
    </contour>
    <contour>
      <point x="326" y="-520" type="curve" smooth="yes"/>
      <point x="127" y="-520"/>
      <point x="29" y="-351"/>
      <point x="29" y="-242" type="curve" smooth="yes"/>
      <point x="29" y="-116"/>
      <point x="118" y="-10"/>
      <point x="234" y="-10" type="curve" smooth="yes"/>
      <point x="343" y="-10"/>
      <point x="426" y="-82"/>
      <point x="426" y="-198" type="curve" smooth="yes"/>
      <point x="426" y="-303"/>
      <point x="355" y="-387"/>
      <point x="246" y="-387" type="curve" smooth="yes"/>
      <point x="182" y="-387"/>
      <point x="171" y="-369"/>
      <point x="148" y="-355" type="curve"/>
      <point x="172" y="-388"/>
      <point x="218" y="-447"/>
      <point x="322" y="-447" type="curve" smooth="yes"/>
      <point x="666" y="-447"/>
      <point x="1193" y="357"/>
      <point x="1271" y="593" type="curve" smooth="yes"/>
      <point x="1272" y="597"/>
      <point x="1274" y="599"/>
      <point x="1275" y="605" type="curve"/>
      <point x="1245" y="576"/>
      <point x="1204" y="552"/>
      <point x="1145" y="552" type="curve" smooth="yes"/>
      <point x="1025" y="552"/>
      <point x="950" y="656"/>
      <point x="950" y="746" type="curve" smooth="yes"/>
      <point x="950" y="846"/>
      <point x="1020" y="939"/>
      <point x="1154" y="939" type="curve" smooth="yes"/>
      <point x="1297" y="939"/>
      <point x="1382" y="834"/>
      <point x="1382" y="712" type="curve" smooth="yes"/>
      <point x="1382" y="452"/>
      <point x="730" y="-520"/>
    </contour>
  </outline>
</glyph>
<glyph name="z" format="1">
  <advance width="1061"/>
  <unicode hex="007A"/>
  <outline>
    <contour>
      <point x="66" y="380" type="line"/>
      <point x="198" y="939" type="line"/>
      <point x="305" y="878"/>
      <point x="426" y="861"/>
      <point x="578" y="861" type="curve" smooth="yes"/>
      <point x="715" y="861"/>
      <point x="891" y="884"/>
      <point x="975" y="939" type="curve"/>
      <point x="1018" y="885" type="line"/>
      <point x="789" y="744"/>
      <point x="530" y="510"/>
      <point x="370" y="510" type="curve" smooth="yes"/>
      <point x="282" y="510"/>
      <point x="240" y="536"/>
      <point x="188" y="576" type="curve"/>
      <point x="139" y="380" type="line"/>
    </contour>
    <contour>
      <point x="55" y="40" type="line"/>
      <point x="-55" y="35" type="line"/>
      <point x="912" y="880" type="line"/>
      <point x="1018" y="885" type="line"/>
    </contour>
    <contour>
      <point x="960" y="312" type="curve"/>
      <point x="940" y="285"/>
      <point x="906" y="257"/>
      <point x="848" y="257" type="curve" smooth="yes"/>
      <point x="762" y="257"/>
      <point x="674" y="332"/>
      <point x="674" y="432" type="curve" smooth="yes"/>
      <point x="674" y="541"/>
      <point x="767" y="613"/>
      <point x="857" y="613" type="curve" smooth="yes"/>
      <point x="957" y="613"/>
      <point x="1048" y="532"/>
      <point x="1048" y="410" type="curve" smooth="yes"/>
      <point x="1048" y="269"/>
      <point x="897" y="-20"/>
      <point x="613" y="-20" type="curve" smooth="yes"/>
      <point x="451" y="-20"/>
      <point x="366" y="78"/>
      <point x="234" y="78" type="curve" smooth="yes"/>
      <point x="138" y="78"/>
      <point x="62" y="44"/>
      <point x="-2" y="-20" type="curve"/>
      <point x="-55" y="35" type="line"/>
      <point x="153" y="155"/>
      <point x="373" y="350"/>
      <point x="514" y="350" type="curve" smooth="yes"/>
      <point x="662" y="350"/>
      <point x="646" y="204"/>
      <point x="820" y="204" type="curve" smooth="yes"/>
      <point x="901" y="204"/>
      <point x="935" y="251"/>
    </contour>
  </outline>
</glyph>
<glyph name="asciitilde" format="2">
  <advance width="2818"/>
  <unicode hex="007E"/>
  <outline>
    <contour>
      <point x="1163" y="1667" type="curve" smooth="yes"/>
      <point x="996" y="1667"/>
      <point x="893" y="1577"/>
      <point x="832" y="1405" type="curve"/>
      <point x="614" y="1405" type="line"/>
      <point x="737" y="1876"/>
      <point x="901" y="2212"/>
      <point x="1307" y="2212" type="curve" smooth="yes"/>
      <point x="1758" y="2212"/>
      <point x="1752" y="1827"/>
      <point x="2105" y="1827" type="curve" smooth="yes"/>
      <point x="2313" y="1827"/>
      <point x="2416" y="1917"/>
      <point x="2477" y="2089" type="curve"/>
      <point x="2695" y="2089" type="line"/>
      <point x="2572" y="1618"/>
      <point x="2409" y="1282"/>
      <point x="2003" y="1282" type="curve" smooth="yes"/>
      <point x="1483" y="1282"/>
      <point x="1545" y="1667"/>
    </contour>
  </outline>
</glyph>
<glyph name="cent" format="1">
  <advance width="1067"/>
  <unicode hex="00A2"/>
  <outline>
    <contour>
      <point x="770" y="1109" type="line"/>
      <point x="430" y="-170" type="line"/>
      <point x="391" y="-170" type="line"/>
      <point x="730" y="1109" type="line"/>
    </contour>
    <component base="c"/>
  </outline>
</glyph>
<glyph name="brokenbar" format="1">
  <advance width="472"/>
  <unicode hex="00A6"/>
  <outline>
    <contour>
      <point x="200" y="332" type="line"/>
      <point x="270" y="332" type="line"/>
      <point x="77" y="-500" type="line"/>
      <point x="8" y="-500" type="line"/>
    </contour>
    <contour>
      <point x="484" y="1561" type="line"/>
      <point x="553" y="1561" type="line"/>
      <point x="381" y="818" type="line"/>
      <point x="312" y="818" type="line"/>
    </contour>
  </outline>
</glyph>
<glyph name="acute" format="1">
  <advance width="829"/>
  <unicode hex="00B4"/>
  <outline>
    <contour>
      <point x="891" y="1340" type="curve" smooth="yes"/>
      <point x="461" y="1403" type="line"/>
      <point x="453" y="1477" type="line"/>
      <point x="870" y="1637" type="line" smooth="yes"/>
      <point x="972" y="1676"/>
      <point x="1080" y="1588"/>
      <point x="1080" y="1490" type="curve" smooth="yes"/>
      <point x="1080" y="1392"/>
      <point x="990" y="1325"/>
    </contour>
  </outline>
</glyph>
<glyph name="mu" format="1">
  <advance width="1427"/>
  <unicode hex="00B5"/>
  <outline>
    <contour>
      <point x="94" y="-182" type="line" smooth="yes"/>
      <point x="54" y="-358"/>
      <point x="77" y="-433"/>
      <point x="170" y="-453" type="curve"/>
      <point x="170" y="-451" type="line"/>
      <point x="150" y="-420"/>
      <point x="146" y="-388"/>
      <point x="146" y="-352" type="curve" smooth="yes"/>
      <point x="146" y="-286"/>
      <point x="198" y="-246"/>
      <point x="264" y="-246" type="curve" smooth="yes"/>
      <point x="330" y="-246"/>
      <point x="382" y="-304"/>
      <point x="382" y="-380" type="curve" smooth="yes"/>
      <point x="382" y="-458"/>
      <point x="339" y="-520"/>
      <point x="193" y="-520" type="curve" smooth="yes"/>
      <point x="13" y="-520"/>
      <point x="-24" y="-371"/>
      <point x="20" y="-182" type="curve" smooth="yes"/>
      <point x="210" y="643" type="line"/>
      <point x="283" y="643" type="line"/>
    </contour>
    <component base="u"/>
  </outline>
</glyph>
<glyph name="cedilla" format="1">
  <advance width="1099"/>
  <unicode hex="00B8"/>
  <outline>
    <contour>
      <point x="449" y="-158" type="line"/>
      <point x="689" y="82" type="line"/>
      <point x="803" y="82" type="line"/>
      <point x="562" y="-158" type="line"/>
    </contour>
    <contour>
      <point x="475" y="-158" type="curve"/>
      <point x="574" y="-78" type="line"/>
      <point x="736" y="-78"/>
      <point x="908" y="-101"/>
      <point x="908" y="-221" type="curve" smooth="yes"/>
      <point x="908" y="-381"/>
      <point x="664" y="-439"/>
      <point x="402" y="-439" type="curve"/>
      <point x="402" y="-367" type="line"/>
      <point x="520" y="-367"/>
      <point x="598" y="-348"/>
      <point x="598" y="-260" type="curve" smooth="yes"/>
      <point x="598" y="-194"/>
      <point x="565" y="-158"/>
    </contour>
  </outline>
</glyph>
<glyph name="AE" format="1">
  <advance width="2152"/>
  <unicode hex="00C6"/>
  <outline>
    <contour>
      <point x="1498" y="1500" type="line"/>
      <point x="2342" y="1500" type="line"/>
      <point x="2245" y="1090" type="line"/>
      <point x="2172" y="1090" type="line"/>
      <point x="2162" y="1304"/>
      <point x="2052" y="1427"/>
      <point x="1818" y="1427" type="curve" smooth="yes"/>
      <point x="1498" y="1427" type="line"/>
    </contour>
    <contour>
      <point x="1557" y="739" type="curve" smooth="yes"/>
      <point x="1434" y="739" type="line"/>
      <point x="1434" y="812" type="line"/>
      <point x="1557" y="812" type="line" smooth="yes"/>
      <point x="1670" y="812"/>
      <point x="1792" y="912"/>
      <point x="1882" y="1046" type="curve"/>
      <point x="1955" y="1046" type="line"/>
      <point x="1827" y="496" type="line"/>
      <point x="1754" y="496" type="line"/>
      <point x="1725" y="630"/>
      <point x="1670" y="739"/>
    </contour>
    <contour>
      <point x="2014" y="0" type="line"/>
      <point x="800" y="0" type="line"/>
      <point x="800" y="73" type="line"/>
      <point x="1471" y="73" type="line" smooth="yes"/>
      <point x="1744" y="73"/>
      <point x="1926" y="196"/>
      <point x="2044" y="450" type="curve"/>
      <point x="2117" y="450" type="line"/>
    </contour>
    <contour>
      <point x="1318" y="1500" type="line"/>
      <point x="1748" y="1500" type="line"/>
      <point x="1400" y="0" type="line"/>
      <point x="971" y="0" type="line"/>
    </contour>
    <contour>
      <point x="510" y="526" type="line"/>
      <point x="1109" y="526" type="line"/>
      <point x="1109" y="453" type="line"/>
      <point x="485" y="453" type="line"/>
    </contour>
    <contour>
      <point x="1257" y="1500" type="line"/>
      <point x="1340" y="1500" type="line"/>
      <point x="150" y="0" type="line"/>
      <point x="57" y="0" type="line"/>
    </contour>
    <contour>
      <point x="-50" y="73" type="line"/>
      <point x="391" y="73" type="line"/>
      <point x="391" y="0" type="line"/>
      <point x="-50" y="0" type="line"/>
    </contour>
  </outline>
</glyph>
<glyph name="ae" format="1">
  <advance width="1825"/>
  <unicode hex="00E6"/>
  <outline>
    <contour>
      <point x="548" y="521" type="curve" smooth="yes"/>
      <point x="736" y="521" type="line"/>
      <point x="736" y="449" type="line"/>
      <point x="668" y="449" type="line" smooth="yes"/>
      <point x="557" y="449"/>
      <point x="426" y="354"/>
      <point x="426" y="170" type="curve" smooth="yes"/>
      <point x="426" y="76"/>
      <point x="451" y="53"/>
      <point x="480" y="53" type="curve" smooth="yes"/>
      <point x="574" y="53"/>
      <point x="632" y="166"/>
      <point x="676" y="361" type="curve" smooth="yes"/>
      <point x="732" y="609" type="line" smooth="yes"/>
      <point x="759" y="737"/>
      <point x="746" y="865"/>
      <point x="605" y="865" type="curve" smooth="yes"/>
      <point x="586" y="865"/>
      <point x="580" y="861"/>
      <point x="568" y="857" type="curve"/>
      <point x="599" y="846"/>
      <point x="648" y="816"/>
      <point x="648" y="736" type="curve" smooth="yes"/>
      <point x="648" y="636"/>
      <point x="560" y="542"/>
      <point x="430" y="542" type="curve" smooth="yes"/>
      <point x="289" y="542"/>
      <point x="227" y="599"/>
      <point x="227" y="691" type="curve" smooth="yes"/>
      <point x="227" y="815"/>
      <point x="403" y="936"/>
      <point x="626" y="936" type="curve" smooth="yes"/>
      <point x="886" y="936"/>
      <point x="1084" y="871"/>
      <point x="1052" y="609" type="curve"/>
      <point x="986" y="361" type="line"/>
      <point x="940" y="113"/>
      <point x="642" y="-20"/>
      <point x="380" y="-20" type="curve" smooth="yes"/>
      <point x="182" y="-20"/>
      <point x="36" y="38"/>
      <point x="36" y="186" type="curve" smooth="yes"/>
      <point x="36" y="374"/>
      <point x="224" y="521"/>
    </contour>
    <contour>
      <point x="1466" y="764" type="curve" smooth="yes"/>
      <point x="1466" y="838"/>
      <point x="1454" y="871"/>
      <point x="1412" y="871" type="curve" smooth="yes"/>
      <point x="1334" y="871"/>
      <point x="1178" y="568"/>
      <point x="1178" y="240" type="curve" smooth="yes"/>
      <point x="1178" y="136"/>
      <point x="1211" y="83"/>
      <point x="1309" y="83" type="curve" smooth="yes"/>
      <point x="1395" y="83"/>
      <point x="1516" y="145"/>
      <point x="1632" y="286" type="curve"/>
      <point x="1708" y="286" type="line"/>
      <point x="1610" y="132"/>
      <point x="1430" y="-20"/>
      <point x="1148" y="-20" type="curve" smooth="yes"/>
      <point x="986" y="-20"/>
      <point x="830" y="80"/>
      <point x="830" y="320" type="curve"/>
      <point x="870" y="311" type="line"/>
      <point x="874" y="691"/>
      <point x="1132" y="939"/>
      <point x="1452" y="939" type="curve" smooth="yes"/>
      <point x="1616" y="939"/>
      <point x="1818" y="889"/>
      <point x="1818" y="725" type="curve" smooth="yes"/>
      <point x="1818" y="405"/>
      <point x="1222" y="367"/>
      <point x="1160" y="367" type="curve"/>
      <point x="1160" y="440" type="line"/>
      <point x="1219" y="440"/>
      <point x="1466" y="516"/>
    </contour>
  </outline>
</glyph>
<glyph name="eth" format="1">
  <advance width="1319"/>
  <unicode hex="00F0"/>
  <outline>
    <contour>
      <point x="520" y="1260" type="line"/>
      <point x="1439" y="1260" type="line"/>
      <point x="1439" y="1188" type="line"/>
      <point x="520" y="1188" type="line"/>
    </contour>
    <contour>
      <point x="1314" y="760" type="curve" smooth="yes"/>
      <point x="1314" y="340"/>
      <point x="933" y="-20"/>
      <point x="572" y="-20" type="curve" smooth="yes"/>
      <point x="270" y="-20"/>
      <point x="80" y="120"/>
      <point x="80" y="380" type="curve" smooth="yes"/>
      <point x="80" y="760"/>
      <point x="471" y="980"/>
      <point x="713" y="980" type="curve" smooth="yes"/>
      <point x="895" y="980"/>
      <point x="935" y="894"/>
      <point x="915" y="660" type="curve"/>
      <point x="848" y="787" type="line"/>
      <point x="848" y="867"/>
      <point x="816" y="889"/>
      <point x="782" y="889" type="curve" smooth="yes"/>
      <point x="624" y="889"/>
      <point x="494" y="421"/>
      <point x="494" y="213" type="curve" smooth="yes"/>
      <point x="494" y="85"/>
      <point x="507" y="53"/>
      <point x="566" y="53" type="curve" smooth="yes"/>
      <point x="684" y="53"/>
      <point x="848" y="459"/>
      <point x="848" y="787" type="curve"/>
      <point x="874" y="740" type="line"/>
      <point x="935" y="1144"/>
      <point x="818" y="1453"/>
      <point x="490" y="1453" type="curve"/>
      <point x="490" y="1520" type="line"/>
      <point x="1036" y="1520"/>
      <point x="1314" y="1205"/>
    </contour>
  </outline>
</glyph>
<glyph name="dotlessi" format="2">
  <advance width="1736"/>
  <unicode hex="0131"/>
  <outline>
    <contour>
      <point x="1634" y="668" type="line"/>
      <point x="1478" y="258"/>
      <point x="1195" y="-41"/>
      <point x="720" y="-41" type="curve" smooth="yes"/>
      <point x="385" y="-41"/>
      <point x="224" y="53"/>
      <point x="224" y="340" type="curve" smooth="yes"/>
      <point x="224" y="360"/>
      <point x="227.498" y="404.616"/>
      <point x="234" y="430" type="curve" smooth="yes"/>
      <point x="567" y="1734" type="line"/>
      <point x="266" y="1734" type="line"/>
      <point x="266" y="1884" type="line"/>
      <point x="1380" y="1884" type="line"/>
      <point x="999" y="379" type="line" smooth="yes"/>
      <point x="992.829" y="354.548"/>
      <point x="990" y="326"/>
      <point x="990" y="306" type="curve" smooth="yes"/>
      <point x="990" y="261"/>
      <point x="1012" y="228"/>
      <point x="1065" y="228" type="curve" smooth="yes"/>
      <point x="1185" y="228"/>
      <point x="1393" y="442"/>
      <point x="1487" y="712" type="curve"/>
    </contour>
  </outline>
</glyph>
<glyph name="lslash" format="1">
  <advance width="827"/>
  <unicode hex="0142"/>
  <outline>
    <contour>
      <point x="61" y="721" type="line"/>
      <point x="870" y="1160" type="line"/>
      <point x="870" y="1076" type="line"/>
      <point x="61" y="636" type="line"/>
    </contour>
    <component base="l"/>
  </outline>
</glyph>
<glyph name="OE" format="2">
  <advance width="4419"/>
  <unicode hex="0152"/>
  <outline>
    <contour>
      <point x="2208" y="3072" type="curve"/>
      <point x="2208" y="2922" type="line"/>
      <point x="1536" y="2922"/>
      <point x="1102" y="1585"/>
      <point x="1102" y="635" type="curve" smooth="yes"/>
      <point x="1102" y="258"/>
      <point x="1213" y="150"/>
      <point x="1516" y="150" type="curve"/>
      <point x="1516" y="0" type="line"/>
      <point x="889" y="0"/>
      <point x="201" y="213"/>
      <point x="201" y="1004" type="curve" smooth="yes"/>
      <point x="201" y="2286"/>
      <point x="1172" y="3072"/>
    </contour>
    <component base="E" xOffset="1720"/>
  </outline>
</glyph>
<glyph name="uni0212" format="1">
  <advance width="1639"/>
  <unicode hex="0212"/>
  <outline>
    <contour>
      <point x="1170" y="1641" type="line"/>
      <point x="1180" y="1715"/>
      <point x="1097" y="1748"/>
      <point x="990" y="1748" type="curve" smooth="yes"/>
      <point x="883" y="1748"/>
      <point x="762" y="1739"/>
      <point x="730" y="1641" type="curve"/>
      <point x="689" y="1641" type="line"/>
      <point x="709" y="1763"/>
      <point x="770" y="2018"/>
      <point x="1010" y="2018" type="curve" smooth="yes"/>
      <point x="1231" y="2018"/>
      <point x="1230" y="1763"/>
      <point x="1210" y="1641" type="curve"/>
    </contour>
    <component base="R"/>
  </outline>
</glyph>
<glyph name="uni0213" format="1">
  <advance width="1133"/>
  <unicode hex="0213"/>
  <outline>
    <contour>
      <point x="920" y="1080" type="line"/>
      <point x="930" y="1154"/>
      <point x="847" y="1188"/>
      <point x="740" y="1188" type="curve" smooth="yes"/>
      <point x="633" y="1188"/>
      <point x="512" y="1178"/>
      <point x="480" y="1080" type="curve"/>
      <point x="439" y="1080" type="line"/>
      <point x="459" y="1202"/>
      <point x="520" y="1458"/>
      <point x="760" y="1458" type="curve" smooth="yes"/>
      <point x="981" y="1458"/>
      <point x="980" y="1202"/>
      <point x="960" y="1080" type="curve"/>
    </contour>
    <component base="r"/>
  </outline>
</glyph>
<glyph name="circumflex" format="1">
  <advance width="969"/>
  <unicode hex="02C6"/>
  <outline>
    <contour>
      <point x="744" y="1350" type="line"/>
      <point x="359" y="1181" type="line"/>
      <point x="320" y="1221" type="line"/>
      <point x="645" y="1540" type="line"/>
      <point x="854" y="1540" type="line"/>
      <point x="1090" y="1221" type="line"/>
      <point x="1055" y="1186" type="line"/>
    </contour>
  </outline>
</glyph>
<glyph name="caron" format="1">
  <advance width="969"/>
  <unicode hex="02C7"/>
  <outline>
    <contour>
      <point x="630" y="1471" type="line"/>
      <point x="1020" y="1635" type="line"/>
      <point x="1055" y="1600" type="line"/>
      <point x="730" y="1279" type="line"/>
      <point x="520" y="1279" type="line"/>
      <point x="284" y="1600" type="line"/>
      <point x="324" y="1640" type="line"/>
    </contour>
  </outline>
</glyph>
<glyph name="breve" format="1">
  <advance width="639"/>
  <unicode hex="02D8"/>
  <outline>
    <contour>
      <point x="393" y="1518" type="line"/>
      <point x="383" y="1444"/>
      <point x="433" y="1410"/>
      <point x="540" y="1410" type="curve" smooth="yes"/>
      <point x="647" y="1410"/>
      <point x="735" y="1420"/>
      <point x="767" y="1518" type="curve"/>
      <point x="840" y="1518" type="line"/>
      <point x="820" y="1396"/>
      <point x="760" y="1141"/>
      <point x="520" y="1141" type="curve" smooth="yes"/>
      <point x="299" y="1141"/>
      <point x="300" y="1396"/>
      <point x="320" y="1518" type="curve"/>
    </contour>
  </outline>
</glyph>
<glyph name="ring" format="1">
  <advance width="639"/>
  <unicode hex="02DA"/>
  <outline>
    <contour>
      <point x="330" y="1359" type="curve" smooth="yes"/>
      <point x="330" y="1461"/>
      <point x="418" y="1540"/>
      <point x="561" y="1540" type="curve" smooth="yes"/>
      <point x="704" y="1540"/>
      <point x="790" y="1461"/>
      <point x="790" y="1359" type="curve" smooth="yes"/>
      <point x="790" y="1257"/>
      <point x="704" y="1180"/>
      <point x="561" y="1180" type="curve" smooth="yes"/>
      <point x="418" y="1180"/>
      <point x="330" y="1257"/>
    </contour>
    <contour>
      <point x="496" y="1270" type="curve" smooth="yes"/>
      <point x="496" y="1247"/>
      <point x="495" y="1221"/>
      <point x="529" y="1221" type="curve" smooth="yes"/>
      <point x="584" y="1221"/>
      <point x="624" y="1386"/>
      <point x="624" y="1450" type="curve" smooth="yes"/>
      <point x="624" y="1473"/>
      <point x="624" y="1500"/>
      <point x="590" y="1500" type="curve" smooth="yes"/>
      <point x="535" y="1500"/>
      <point x="496" y="1334"/>
    </contour>
  </outline>
</glyph>
<glyph name="ogonek" format="1">
  <advance width="1099"/>
  <unicode hex="02DB"/>
  <outline>
    <contour>
      <point x="775" y="-227" type="line"/>
      <point x="746" y="-284"/>
      <point x="647" y="-412"/>
      <point x="445" y="-412" type="curve" smooth="yes"/>
      <point x="302" y="-412"/>
      <point x="195" y="-362"/>
      <point x="195" y="-262" type="curve" smooth="yes"/>
      <point x="195" y="-102"/>
      <point x="462" y="50"/>
      <point x="664" y="111" type="curve"/>
      <point x="695" y="64" type="line"/>
      <point x="633" y="22"/>
      <point x="557" y="-85"/>
      <point x="557" y="-211" type="curve" smooth="yes"/>
      <point x="557" y="-275"/>
      <point x="562" y="-295"/>
      <point x="600" y="-295" type="curve" smooth="yes"/>
      <point x="637" y="-295"/>
      <point x="694" y="-239"/>
      <point x="715" y="-197" type="curve"/>
    </contour>
  </outline>
</glyph>
<glyph name="tilde" format="1">
  <advance width="895"/>
  <unicode hex="02DC"/>
  <outline>
    <contour>
      <point x="484" y="1277" type="curve" smooth="yes"/>
      <point x="438" y="1277"/>
      <point x="403" y="1264"/>
      <point x="363" y="1200" type="curve"/>
      <point x="290" y="1200" type="line"/>
      <point x="330" y="1370"/>
      <point x="401" y="1514"/>
      <point x="559" y="1514" type="curve" smooth="yes"/>
      <point x="700" y="1514"/>
      <point x="760" y="1355"/>
      <point x="852" y="1355" type="curve" smooth="yes"/>
      <point x="898" y="1355"/>
      <point x="933" y="1370"/>
      <point x="973" y="1434" type="curve"/>
      <point x="1046" y="1434" type="line"/>
      <point x="1006" y="1245"/>
      <point x="956" y="1120"/>
      <point x="798" y="1120" type="curve" smooth="yes"/>
      <point x="644" y="1120"/>
      <point x="589" y="1277"/>
    </contour>
  </outline>
</glyph>
<glyph name="uni1E9E" format="2">
  <advance width="3731"/>
  <unicode hex="1E9E"/>
  <outline>
    <contour>
      <point x="1548" y="639" type="curve" smooth="yes"/>
      <point x="1548" y="909"/>
      <point x="1721" y="1151"/>
      <point x="1987" y="1151" type="curve" smooth="yes"/>
      <point x="2233" y="1151"/>
      <point x="2413" y="987"/>
      <point x="2413" y="758" type="curve" smooth="yes"/>
      <point x="2413" y="545"/>
      <point x="2175" y="369"/>
      <point x="1974" y="369" type="curve" smooth="yes"/>
      <point x="1877" y="369"/>
      <point x="1811" y="384"/>
      <point x="1751" y="413" type="curve"/>
      <point x="1825" y="200"/>
      <point x="2022" y="117"/>
      <point x="2236" y="117" type="curve" smooth="yes"/>
      <point x="2601" y="117"/>
      <point x="2744" y="639"/>
      <point x="2744" y="1024" type="curve" smooth="yes"/>
      <point x="2744" y="1409"/>
      <point x="2589" y="1588"/>
      <point x="2347" y="1588" type="curve"/>
      <point x="2347" y="1679" type="line"/>
      <point x="3088" y="1679"/>
      <point x="3609" y="1515"/>
      <point x="3609" y="983" type="curve" smooth="yes"/>
      <point x="3609" y="205"/>
      <point x="2855" y="-41"/>
      <point x="2277" y="-41" type="curve" smooth="yes"/>
      <point x="1769" y="-41"/>
      <point x="1548" y="270"/>
    </contour>
    <contour>
      <point x="-102" y="150" type="line"/>
      <point x="1495" y="150" type="line"/>
      <point x="1495" y="0" type="line"/>
      <point x="-102" y="0" type="line"/>
    </contour>
    <contour>
      <point x="2347" y="1642" type="curve"/>
      <point x="2347" y="1734" type="line"/>
      <point x="2875" y="1734"/>
      <point x="2990" y="2241"/>
      <point x="2990" y="2585" type="curve" smooth="yes"/>
      <point x="2990" y="2880"/>
      <point x="2814" y="2975"/>
      <point x="2552" y="2975" type="curve" smooth="yes"/>
      <point x="1880" y="2975"/>
      <point x="1704" y="2523"/>
      <point x="1577" y="1970" type="curve" smooth="yes"/>
      <point x="1126" y="0" type="line"/>
      <point x="266" y="0" type="line"/>
      <point x="737" y="2011" type="line" smooth="yes"/>
      <point x="913" y="2797"/>
      <point x="1557" y="3113"/>
      <point x="2593" y="3113" type="curve" smooth="yes"/>
      <point x="3261" y="3113"/>
      <point x="3875" y="2966"/>
      <point x="3875" y="2462" type="curve" smooth="yes"/>
      <point x="3875" y="1930"/>
      <point x="3170" y="1642"/>
    </contour>
  </outline>
</glyph>
<glyph name="perthousand" format="1">
  <advance width="3040"/>
  <unicode hex="2030"/>
  <outline>
    <contour>
      <point x="2500" y="-20" type="curve" smooth="yes"/>
      <point x="2273" y="-20"/>
      <point x="2100" y="73"/>
      <point x="2100" y="279" type="curve" smooth="yes"/>
      <point x="2100" y="605"/>
      <point x="2373" y="859"/>
      <point x="2680" y="859" type="curve" smooth="yes"/>
      <point x="2907" y="859"/>
      <point x="3080" y="767"/>
      <point x="3080" y="561" type="curve" smooth="yes"/>
      <point x="3080" y="235"/>
      <point x="2807" y="-20"/>
    </contour>
    <contour>
      <point x="2695" y="787" type="curve" smooth="yes"/>
      <point x="2607" y="787"/>
      <point x="2445" y="307"/>
      <point x="2445" y="143" type="curve" smooth="yes"/>
      <point x="2445" y="99"/>
      <point x="2457" y="53"/>
      <point x="2484" y="53" type="curve" smooth="yes"/>
      <point x="2572" y="53"/>
      <point x="2725" y="543"/>
      <point x="2725" y="707" type="curve" smooth="yes"/>
      <point x="2725" y="751"/>
      <point x="2722" y="787"/>
    </contour>
    <contour>
      <point x="1460" y="-20" type="curve" smooth="yes"/>
      <point x="1233" y="-20"/>
      <point x="1061" y="73"/>
      <point x="1061" y="279" type="curve" smooth="yes"/>
      <point x="1061" y="605"/>
      <point x="1334" y="859"/>
      <point x="1641" y="859" type="curve" smooth="yes"/>
      <point x="1868" y="859"/>
      <point x="2040" y="767"/>
      <point x="2040" y="561" type="curve" smooth="yes"/>
      <point x="2040" y="235"/>
      <point x="1767" y="-20"/>
    </contour>
    <contour>
      <point x="1655" y="787" type="curve" smooth="yes"/>
      <point x="1567" y="787"/>
      <point x="1404" y="307"/>
      <point x="1404" y="143" type="curve" smooth="yes"/>
      <point x="1404" y="99"/>
      <point x="1418" y="53"/>
      <point x="1445" y="53" type="curve" smooth="yes"/>
      <point x="1533" y="53"/>
      <point x="1686" y="543"/>
      <point x="1686" y="707" type="curve" smooth="yes"/>
      <point x="1686" y="751"/>
      <point x="1682" y="787"/>
    </contour>
    <contour>
      <point x="1691" y="1500" type="line"/>
      <point x="1790" y="1500" type="line"/>
      <point x="484" y="0" type="line"/>
      <point x="387" y="0" type="line"/>
    </contour>
    <contour>
      <point x="550" y="641" type="curve" smooth="yes"/>
      <point x="323" y="641"/>
      <point x="150" y="733"/>
      <point x="150" y="939" type="curve" smooth="yes"/>
      <point x="150" y="1265"/>
      <point x="423" y="1520"/>
      <point x="730" y="1520" type="curve" smooth="yes"/>
      <point x="957" y="1520"/>
      <point x="1130" y="1427"/>
      <point x="1130" y="1221" type="curve" smooth="yes"/>
      <point x="1130" y="895"/>
      <point x="857" y="641"/>
    </contour>
    <contour>
      <point x="745" y="1447" type="curve" smooth="yes"/>
      <point x="657" y="1447"/>
      <point x="495" y="967"/>
      <point x="495" y="803" type="curve" smooth="yes"/>
      <point x="495" y="759"/>
      <point x="508" y="713"/>
      <point x="535" y="713" type="curve" smooth="yes"/>
      <point x="623" y="713"/>
      <point x="775" y="1203"/>
      <point x="775" y="1367" type="curve" smooth="yes"/>
      <point x="775" y="1411"/>
      <point x="772" y="1447"/>
    </contour>
  </outline>
</glyph>
<glyph name="Euro" format="2">
  <advance width="3358"/>
  <unicode hex="20AC"/>
  <outline>
    <contour>
      <point x="3038" y="2805" type="curve"/>
      <point x="2960" y="2866"/>
      <point x="2769" y="2959"/>
      <point x="2535" y="2959" type="curve" smooth="yes"/>
      <point x="1761" y="2959"/>
      <point x="1430" y="1553"/>
      <point x="1430" y="676" type="curve" smooth="yes"/>
      <point x="1430" y="209"/>
      <point x="1704" y="142"/>
      <point x="1987" y="142" type="curve" smooth="yes"/>
      <point x="2279" y="142"/>
      <point x="2691" y="389"/>
      <point x="2834" y="729" type="curve"/>
      <point x="3002" y="729" type="line"/>
      <point x="2855" y="332"/>
      <point x="2351" y="-41"/>
      <point x="1855" y="-41" type="curve" smooth="yes"/>
      <point x="1277" y="-41"/>
      <point x="545" y="266"/>
      <point x="545" y="1126" type="curve" smooth="yes"/>
      <point x="545" y="2314"/>
      <point x="1425" y="3113"/>
      <point x="2494" y="3113" type="curve" smooth="yes"/>
      <point x="2994" y="3113"/>
      <point x="3461" y="2736"/>
      <point x="3461" y="2400" type="curve" smooth="yes"/>
      <point x="3461" y="2109"/>
      <point x="3228" y="1942"/>
      <point x="3023" y="1942" type="curve" smooth="yes"/>
      <point x="2839" y="1942"/>
      <point x="2585" y="2089"/>
      <point x="2585" y="2376" type="curve" smooth="yes"/>
      <point x="2585" y="2642"/>
      <point x="2822" y="2806"/>
      <point x="3023" y="2806" type="curve" smooth="yes"/>
      <point x="3028" y="2806"/>
      <point x="3033" y="2806"/>
    </contour>
    <component base="equal" xOffset="-123" yOffset="-287"/>
  </outline>
</glyph>
<glyph name="uniFB00" format="1">
  <advance width="1686"/>
  <unicode hex="FB00"/>
  <outline>
    <contour>
      <point x="182" y="920" type="line"/>
      <point x="1681" y="920" type="line"/>
      <point x="1681" y="847" type="line"/>
      <point x="182" y="847" type="line"/>
    </contour>
    <contour>
      <point x="1717" y="1438" type="curve"/>
      <point x="1703" y="1440"/>
      <point x="1687" y="1443"/>
      <point x="1669" y="1443" type="curve" smooth="yes"/>
      <point x="1528" y="1443"/>
      <point x="1463" y="1324"/>
      <point x="1421" y="1080" type="curve" smooth="yes"/>
      <point x="1248" y="76" type="line" smooth="yes"/>
      <point x="1182" y="-313"/>
      <point x="912" y="-420"/>
      <point x="652" y="-420" type="curve" smooth="yes"/>
      <point x="429" y="-420"/>
      <point x="299" y="-286"/>
      <point x="299" y="-162" type="curve" smooth="yes"/>
      <point x="299" y="-40"/>
      <point x="370" y="42"/>
      <point x="490" y="42" type="curve" smooth="yes"/>
      <point x="599" y="42"/>
      <point x="704" y="-26"/>
      <point x="704" y="-146" type="curve" smooth="yes"/>
      <point x="704" y="-212"/>
      <point x="680" y="-252"/>
      <point x="654" y="-280" type="curve" smooth="yes"/>
      <point x="631" y="-305"/>
      <point x="597" y="-328"/>
      <point x="559" y="-338" type="curve"/>
      <point x="573" y="-340"/>
      <point x="588" y="-343"/>
      <point x="606" y="-343" type="curve" smooth="yes"/>
      <point x="747" y="-343"/>
      <point x="832" y="-224"/>
      <point x="874" y="20" type="curve" smooth="yes"/>
      <point x="1047" y="1023" type="line" smooth="yes"/>
      <point x="1113" y="1412"/>
      <point x="1363" y="1520"/>
      <point x="1623" y="1520" type="curve" smooth="yes"/>
      <point x="1846" y="1520"/>
      <point x="1977" y="1386"/>
      <point x="1977" y="1262" type="curve" smooth="yes"/>
      <point x="1977" y="1140"/>
      <point x="1905" y="1059"/>
      <point x="1785" y="1059" type="curve" smooth="yes"/>
      <point x="1676" y="1059"/>
      <point x="1571" y="1126"/>
      <point x="1571" y="1246" type="curve" smooth="yes"/>
      <point x="1571" y="1312"/>
      <point x="1596" y="1353"/>
      <point x="1621" y="1381" type="curve" smooth="yes"/>
      <point x="1644" y="1406"/>
      <point x="1679" y="1428"/>
    </contour>
    <contour>
      <point x="1039" y="1338" type="curve"/>
      <point x="1025" y="1340"/>
      <point x="1008" y="1344"/>
      <point x="990" y="1344" type="curve" smooth="yes"/>
      <point x="849" y="1344"/>
      <point x="765" y="1224"/>
      <point x="723" y="980" type="curve" smooth="yes"/>
      <point x="551" y="-23" type="line" smooth="yes"/>
      <point x="485" y="-412"/>
      <point x="215" y="-520"/>
      <point x="-45" y="-520" type="curve" smooth="yes"/>
      <point x="-268" y="-520"/>
      <point x="-399" y="-386"/>
      <point x="-399" y="-262" type="curve" smooth="yes"/>
      <point x="-399" y="-140"/>
      <point x="-327" y="-58"/>
      <point x="-207" y="-58" type="curve" smooth="yes"/>
      <point x="-98" y="-58"/>
      <point x="6" y="-126"/>
      <point x="6" y="-246" type="curve" smooth="yes"/>
      <point x="6" y="-312"/>
      <point x="-18" y="-352"/>
      <point x="-44" y="-380" type="curve" smooth="yes"/>
      <point x="-67" y="-405"/>
      <point x="-102" y="-428"/>
      <point x="-140" y="-438" type="curve"/>
      <point x="-126" y="-440"/>
      <point x="-110" y="-442"/>
      <point x="-92" y="-442" type="curve" smooth="yes"/>
      <point x="49" y="-442"/>
      <point x="134" y="-324"/>
      <point x="176" y="-80" type="curve" smooth="yes"/>
      <point x="350" y="924" type="line" smooth="yes"/>
      <point x="416" y="1313"/>
      <point x="685" y="1420"/>
      <point x="945" y="1420" type="curve" smooth="yes"/>
      <point x="1168" y="1420"/>
      <point x="1299" y="1286"/>
      <point x="1299" y="1162" type="curve" smooth="yes"/>
      <point x="1299" y="1040"/>
      <point x="1227" y="959"/>
      <point x="1107" y="959" type="curve" smooth="yes"/>
      <point x="998" y="959"/>
      <point x="893" y="1026"/>
      <point x="893" y="1146" type="curve" smooth="yes"/>
      <point x="893" y="1212"/>
      <point x="918" y="1253"/>
      <point x="943" y="1281" type="curve" smooth="yes"/>
      <point x="966" y="1306"/>
      <point x="1001" y="1328"/>
    </contour>
  </outline>
</glyph>
<glyph name="uniFB01" format="1">
  <advance width="1586"/>
  <unicode hex="FB01"/>
  <outline>
    <contour>
      <point x="1537" y="326" type="line"/>
      <point x="1461" y="126"/>
      <point x="1324" y="-20"/>
      <point x="1092" y="-20" type="curve" smooth="yes"/>
      <point x="928" y="-20"/>
      <point x="850" y="25"/>
      <point x="850" y="166" type="curve" smooth="yes"/>
      <point x="850" y="176"/>
      <point x="851" y="197"/>
      <point x="854" y="210" type="curve" smooth="yes"/>
      <point x="1017" y="847" type="line"/>
      <point x="182" y="847" type="line"/>
      <point x="182" y="920" type="line"/>
      <point x="1414" y="920" type="line"/>
      <point x="1228" y="186" type="line" smooth="yes"/>
      <point x="1225" y="174"/>
      <point x="1223" y="159"/>
      <point x="1223" y="149" type="curve" smooth="yes"/>
      <point x="1223" y="128"/>
      <point x="1235" y="111"/>
      <point x="1260" y="111" type="curve" smooth="yes"/>
      <point x="1319" y="111"/>
      <point x="1420" y="216"/>
      <point x="1466" y="348" type="curve"/>
    </contour>
    <contour>
      <point x="1156" y="1438" type="curve"/>
      <point x="1142" y="1440"/>
      <point x="1101" y="1443"/>
      <point x="1083" y="1443" type="curve" smooth="yes"/>
      <point x="919" y="1443"/>
      <point x="784" y="1324"/>
      <point x="742" y="1080" type="curve" smooth="yes"/>
      <point x="550" y="-23" type="line" smooth="yes"/>
      <point x="482" y="-412"/>
      <point x="214" y="-520"/>
      <point x="-46" y="-520" type="curve" smooth="yes"/>
      <point x="-269" y="-520"/>
      <point x="-400" y="-386"/>
      <point x="-400" y="-262" type="curve" smooth="yes"/>
      <point x="-400" y="-140"/>
      <point x="-328" y="-59"/>
      <point x="-208" y="-59" type="curve" smooth="yes"/>
      <point x="-99" y="-59"/>
      <point x="6" y="-126"/>
      <point x="6" y="-246" type="curve" smooth="yes"/>
      <point x="6" y="-312"/>
      <point x="-19" y="-353"/>
      <point x="-45" y="-381" type="curve" smooth="yes"/>
      <point x="-68" y="-406"/>
      <point x="-103" y="-428"/>
      <point x="-141" y="-438" type="curve"/>
      <point x="-127" y="-440"/>
      <point x="-110" y="-443"/>
      <point x="-92" y="-443" type="curve" smooth="yes"/>
      <point x="49" y="-443"/>
      <point x="134" y="-324"/>
      <point x="176" y="-80" type="curve" smooth="yes"/>
      <point x="368" y="1023" type="line" smooth="yes"/>
      <point x="436" y="1412"/>
      <point x="753" y="1520"/>
      <point x="1037" y="1520" type="curve" smooth="yes"/>
      <point x="1279" y="1520"/>
      <point x="1416" y="1386"/>
      <point x="1416" y="1262" type="curve" smooth="yes"/>
      <point x="1416" y="1140"/>
      <point x="1344" y="1059"/>
      <point x="1224" y="1059" type="curve" smooth="yes"/>
      <point x="1115" y="1059"/>
      <point x="1010" y="1126"/>
      <point x="1010" y="1246" type="curve" smooth="yes"/>
      <point x="1010" y="1312"/>
      <point x="1036" y="1353"/>
      <point x="1061" y="1381" type="curve" smooth="yes"/>
      <point x="1084" y="1406"/>
      <point x="1118" y="1428"/>
    </contour>
  </outline>
</glyph>
<glyph name="uniFB02" format="1">
  <advance width="1696"/>
  <unicode hex="FB02"/>
  <outline>
    <contour>
      <point x="1646" y="326" type="line"/>
      <point x="1570" y="126"/>
      <point x="1433" y="-20"/>
      <point x="1201" y="-20" type="curve" smooth="yes"/>
      <point x="1037" y="-20"/>
      <point x="959" y="25"/>
      <point x="959" y="166" type="curve" smooth="yes"/>
      <point x="959" y="176"/>
      <point x="961" y="198"/>
      <point x="963" y="210" type="curve" smooth="yes"/>
      <point x="1250" y="1460" type="line"/>
      <point x="1648" y="1540" type="line"/>
      <point x="1338" y="186" type="line" smooth="yes"/>
      <point x="1335" y="174"/>
      <point x="1334" y="159"/>
      <point x="1334" y="149" type="curve" smooth="yes"/>
      <point x="1334" y="128"/>
      <point x="1344" y="111"/>
      <point x="1369" y="111" type="curve" smooth="yes"/>
      <point x="1428" y="111"/>
      <point x="1530" y="216"/>
      <point x="1576" y="348" type="curve"/>
    </contour>
    <contour>
      <point x="182" y="920" type="line"/>
      <point x="1002" y="920" type="line"/>
      <point x="1002" y="847" type="line"/>
      <point x="182" y="847" type="line"/>
    </contour>
    <contour>
      <point x="1377" y="1262" type="curve" smooth="yes"/>
      <point x="1377" y="1140"/>
      <point x="1305" y="1059"/>
      <point x="1185" y="1059" type="curve" smooth="yes"/>
      <point x="1076" y="1059"/>
      <point x="971" y="1126"/>
      <point x="971" y="1246" type="curve" smooth="yes"/>
      <point x="971" y="1312"/>
      <point x="996" y="1353"/>
      <point x="1021" y="1381" type="curve" smooth="yes"/>
      <point x="1044" y="1406"/>
      <point x="1079" y="1428"/>
      <point x="1117" y="1438" type="curve"/>
      <point x="1103" y="1440"/>
      <point x="1086" y="1443"/>
      <point x="1068" y="1443" type="curve" smooth="yes"/>
      <point x="879" y="1443"/>
      <point x="784" y="1324"/>
      <point x="742" y="1080" type="curve" smooth="yes"/>
      <point x="550" y="-23" type="line" smooth="yes"/>
      <point x="482" y="-412"/>
      <point x="214" y="-520"/>
      <point x="-46" y="-520" type="curve" smooth="yes"/>
      <point x="-269" y="-520"/>
      <point x="-400" y="-386"/>
      <point x="-400" y="-262" type="curve" smooth="yes"/>
      <point x="-400" y="-140"/>
      <point x="-328" y="-59"/>
      <point x="-208" y="-59" type="curve" smooth="yes"/>
      <point x="-99" y="-59"/>
      <point x="6" y="-126"/>
      <point x="6" y="-246" type="curve" smooth="yes"/>
      <point x="6" y="-312"/>
      <point x="-19" y="-353"/>
      <point x="-45" y="-381" type="curve" smooth="yes"/>
      <point x="-68" y="-406"/>
      <point x="-103" y="-428"/>
      <point x="-141" y="-438" type="curve"/>
      <point x="-127" y="-440"/>
      <point x="-110" y="-443"/>
      <point x="-92" y="-443" type="curve" smooth="yes"/>
      <point x="49" y="-443"/>
      <point x="134" y="-324"/>
      <point x="176" y="-80" type="curve" smooth="yes"/>
      <point x="368" y="1023" type="line" smooth="yes"/>
      <point x="436" y="1412"/>
      <point x="713" y="1520"/>
      <point x="1022" y="1520" type="curve" smooth="yes"/>
      <point x="1221" y="1520"/>
      <point x="1377" y="1414"/>
    </contour>
  </outline>
</glyph>
<glyph name="uniFB03" format="1">
  <advance width="2265"/>
  <unicode hex="FB03"/>
  <outline>
    <contour>
      <point x="2217" y="326" type="line"/>
      <point x="2141" y="126"/>
      <point x="2002" y="-20"/>
      <point x="1770" y="-20" type="curve" smooth="yes"/>
      <point x="1606" y="-20"/>
      <point x="1527" y="25"/>
      <point x="1527" y="166" type="curve" smooth="yes"/>
      <point x="1527" y="176"/>
      <point x="1530" y="197"/>
      <point x="1533" y="210" type="curve" smooth="yes"/>
      <point x="1695" y="847" type="line"/>
      <point x="182" y="847" type="line"/>
      <point x="182" y="920" type="line"/>
      <point x="2092" y="920" type="line"/>
      <point x="1906" y="186" type="line" smooth="yes"/>
      <point x="1903" y="174"/>
      <point x="1902" y="159"/>
      <point x="1902" y="149" type="curve" smooth="yes"/>
      <point x="1902" y="128"/>
      <point x="1913" y="111"/>
      <point x="1938" y="111" type="curve" smooth="yes"/>
      <point x="1997" y="111"/>
      <point x="2099" y="216"/>
      <point x="2145" y="348" type="curve"/>
    </contour>
    <contour>
      <point x="2094" y="1262" type="curve" smooth="yes"/>
      <point x="2094" y="1140"/>
      <point x="2022" y="1059"/>
      <point x="1902" y="1059" type="curve" smooth="yes"/>
      <point x="1793" y="1059"/>
      <point x="1688" y="1126"/>
      <point x="1688" y="1246" type="curve" smooth="yes"/>
      <point x="1688" y="1312"/>
      <point x="1713" y="1353"/>
      <point x="1738" y="1381" type="curve" smooth="yes"/>
      <point x="1761" y="1406"/>
      <point x="1796" y="1428"/>
      <point x="1834" y="1438" type="curve"/>
      <point x="1820" y="1440"/>
      <point x="1780" y="1443"/>
      <point x="1762" y="1443" type="curve" smooth="yes"/>
      <point x="1598" y="1443"/>
      <point x="1463" y="1324"/>
      <point x="1421" y="1080" type="curve" smooth="yes"/>
      <point x="1248" y="76" type="line" smooth="yes"/>
      <point x="1182" y="-313"/>
      <point x="912" y="-420"/>
      <point x="652" y="-420" type="curve" smooth="yes"/>
      <point x="429" y="-420"/>
      <point x="299" y="-286"/>
      <point x="299" y="-162" type="curve" smooth="yes"/>
      <point x="299" y="-40"/>
      <point x="370" y="42"/>
      <point x="490" y="42" type="curve" smooth="yes"/>
      <point x="599" y="42"/>
      <point x="704" y="-26"/>
      <point x="704" y="-146" type="curve" smooth="yes"/>
      <point x="704" y="-212"/>
      <point x="680" y="-252"/>
      <point x="654" y="-280" type="curve" smooth="yes"/>
      <point x="631" y="-305"/>
      <point x="597" y="-328"/>
      <point x="559" y="-338" type="curve"/>
      <point x="573" y="-340"/>
      <point x="588" y="-343"/>
      <point x="606" y="-343" type="curve" smooth="yes"/>
      <point x="747" y="-343"/>
      <point x="832" y="-224"/>
      <point x="874" y="20" type="curve" smooth="yes"/>
      <point x="1047" y="1023" type="line" smooth="yes"/>
      <point x="1113" y="1412"/>
      <point x="1432" y="1520"/>
      <point x="1716" y="1520" type="curve" smooth="yes"/>
      <point x="1926" y="1520"/>
      <point x="2094" y="1423"/>
    </contour>
    <contour>
      <point x="1020" y="1338" type="curve"/>
      <point x="1006" y="1340"/>
      <point x="989" y="1343"/>
      <point x="971" y="1343" type="curve" smooth="yes"/>
      <point x="830" y="1343"/>
      <point x="765" y="1224"/>
      <point x="723" y="980" type="curve" smooth="yes"/>
      <point x="550" y="-23" type="line" smooth="yes"/>
      <point x="484" y="-412"/>
      <point x="214" y="-520"/>
      <point x="-46" y="-520" type="curve" smooth="yes"/>
      <point x="-269" y="-520"/>
      <point x="-400" y="-386"/>
      <point x="-400" y="-262" type="curve" smooth="yes"/>
      <point x="-400" y="-140"/>
      <point x="-328" y="-59"/>
      <point x="-208" y="-59" type="curve" smooth="yes"/>
      <point x="-99" y="-59"/>
      <point x="6" y="-126"/>
      <point x="6" y="-246" type="curve" smooth="yes"/>
      <point x="6" y="-312"/>
      <point x="-19" y="-353"/>
      <point x="-45" y="-381" type="curve" smooth="yes"/>
      <point x="-68" y="-406"/>
      <point x="-103" y="-428"/>
      <point x="-141" y="-438" type="curve"/>
      <point x="-127" y="-440"/>
      <point x="-110" y="-443"/>
      <point x="-92" y="-443" type="curve" smooth="yes"/>
      <point x="49" y="-443"/>
      <point x="134" y="-324"/>
      <point x="176" y="-80" type="curve" smooth="yes"/>
      <point x="349" y="924" type="line" smooth="yes"/>
      <point x="415" y="1313"/>
      <point x="665" y="1420"/>
      <point x="925" y="1420" type="curve" smooth="yes"/>
      <point x="1148" y="1420"/>
      <point x="1279" y="1286"/>
      <point x="1279" y="1162" type="curve" smooth="yes"/>
      <point x="1279" y="1040"/>
      <point x="1207" y="958"/>
      <point x="1087" y="958" type="curve" smooth="yes"/>
      <point x="978" y="958"/>
      <point x="873" y="1026"/>
      <point x="873" y="1146" type="curve" smooth="yes"/>
      <point x="873" y="1212"/>
      <point x="899" y="1252"/>
      <point x="924" y="1280" type="curve" smooth="yes"/>
      <point x="947" y="1305"/>
      <point x="982" y="1328"/>
    </contour>
  </outline>
</glyph>
<glyph name="uniFB04" format="1">
  <advance width="2375"/>
  <unicode hex="FB04"/>
  <outline>
    <contour>
      <point x="2326" y="326" type="line"/>
      <point x="2250" y="126"/>
      <point x="2111" y="-20"/>
      <point x="1879" y="-20" type="curve" smooth="yes"/>
      <point x="1715" y="-20"/>
      <point x="1638" y="25"/>
      <point x="1638" y="166" type="curve" smooth="yes"/>
      <point x="1638" y="176"/>
      <point x="1641" y="198"/>
      <point x="1643" y="210" type="curve" smooth="yes"/>
      <point x="1929" y="1460" type="line"/>
      <point x="2326" y="1540" type="line"/>
      <point x="2016" y="186" type="line" smooth="yes"/>
      <point x="2013" y="174"/>
      <point x="2012" y="159"/>
      <point x="2012" y="149" type="curve" smooth="yes"/>
      <point x="2012" y="128"/>
      <point x="2024" y="111"/>
      <point x="2049" y="111" type="curve" smooth="yes"/>
      <point x="2108" y="111"/>
      <point x="2208" y="216"/>
      <point x="2254" y="348" type="curve"/>
    </contour>
    <contour>
      <point x="182" y="920" type="line"/>
      <point x="1681" y="920" type="line"/>
      <point x="1681" y="847" type="line"/>
      <point x="182" y="847" type="line"/>
    </contour>
    <contour>
      <point x="1795" y="1438" type="curve"/>
      <point x="1781" y="1440"/>
      <point x="1765" y="1443"/>
      <point x="1747" y="1443" type="curve" smooth="yes"/>
      <point x="1558" y="1443"/>
      <point x="1463" y="1324"/>
      <point x="1421" y="1080" type="curve" smooth="yes"/>
      <point x="1248" y="76" type="line" smooth="yes"/>
      <point x="1182" y="-313"/>
      <point x="912" y="-420"/>
      <point x="652" y="-420" type="curve" smooth="yes"/>
      <point x="429" y="-420"/>
      <point x="299" y="-286"/>
      <point x="299" y="-162" type="curve" smooth="yes"/>
      <point x="299" y="-40"/>
      <point x="370" y="42"/>
      <point x="490" y="42" type="curve" smooth="yes"/>
      <point x="599" y="42"/>
      <point x="704" y="-26"/>
      <point x="704" y="-146" type="curve" smooth="yes"/>
      <point x="704" y="-212"/>
      <point x="680" y="-252"/>
      <point x="654" y="-280" type="curve" smooth="yes"/>
      <point x="631" y="-305"/>
      <point x="597" y="-328"/>
      <point x="559" y="-338" type="curve"/>
      <point x="573" y="-340"/>
      <point x="588" y="-343"/>
      <point x="606" y="-343" type="curve" smooth="yes"/>
      <point x="747" y="-343"/>
      <point x="832" y="-224"/>
      <point x="874" y="20" type="curve" smooth="yes"/>
      <point x="1047" y="1023" type="line" smooth="yes"/>
      <point x="1115" y="1412"/>
      <point x="1392" y="1520"/>
      <point x="1701" y="1520" type="curve" smooth="yes"/>
      <point x="1924" y="1520"/>
      <point x="2055" y="1386"/>
      <point x="2055" y="1262" type="curve" smooth="yes"/>
      <point x="2055" y="1140"/>
      <point x="1983" y="1059"/>
      <point x="1863" y="1059" type="curve" smooth="yes"/>
      <point x="1754" y="1059"/>
      <point x="1649" y="1126"/>
      <point x="1649" y="1246" type="curve" smooth="yes"/>
      <point x="1649" y="1312"/>
      <point x="1674" y="1353"/>
      <point x="1699" y="1381" type="curve" smooth="yes"/>
      <point x="1722" y="1406"/>
      <point x="1757" y="1428"/>
    </contour>
    <contour>
      <point x="1020" y="1338" type="curve"/>
      <point x="1006" y="1340"/>
      <point x="989" y="1343"/>
      <point x="971" y="1343" type="curve" smooth="yes"/>
      <point x="830" y="1343"/>
      <point x="765" y="1224"/>
      <point x="723" y="980" type="curve" smooth="yes"/>
      <point x="550" y="-23" type="line" smooth="yes"/>
      <point x="484" y="-412"/>
      <point x="214" y="-520"/>
      <point x="-46" y="-520" type="curve" smooth="yes"/>
      <point x="-269" y="-520"/>
      <point x="-400" y="-386"/>
      <point x="-400" y="-262" type="curve" smooth="yes"/>
      <point x="-400" y="-140"/>
      <point x="-328" y="-59"/>
      <point x="-208" y="-59" type="curve" smooth="yes"/>
      <point x="-99" y="-59"/>
      <point x="6" y="-126"/>
      <point x="6" y="-246" type="curve" smooth="yes"/>
      <point x="6" y="-312"/>
      <point x="-19" y="-353"/>
      <point x="-45" y="-381" type="curve" smooth="yes"/>
      <point x="-68" y="-406"/>
      <point x="-103" y="-428"/>
      <point x="-141" y="-438" type="curve"/>
      <point x="-127" y="-440"/>
      <point x="-110" y="-443"/>
      <point x="-92" y="-443" type="curve" smooth="yes"/>
      <point x="49" y="-443"/>
      <point x="134" y="-324"/>
      <point x="176" y="-80" type="curve" smooth="yes"/>
      <point x="349" y="924" type="line" smooth="yes"/>
      <point x="415" y="1313"/>
      <point x="665" y="1420"/>
      <point x="925" y="1420" type="curve" smooth="yes"/>
      <point x="1148" y="1420"/>
      <point x="1279" y="1286"/>
      <point x="1279" y="1162" type="curve" smooth="yes"/>
      <point x="1279" y="1040"/>
      <point x="1207" y="958"/>
      <point x="1087" y="958" type="curve" smooth="yes"/>
      <point x="978" y="958"/>
      <point x="873" y="1026"/>
      <point x="873" y="1146" type="curve" smooth="yes"/>
      <point x="873" y="1212"/>
      <point x="899" y="1252"/>
      <point x="924" y="1280" type="curve" smooth="yes"/>
      <point x="947" y="1305"/>
      <point x="982" y="1328"/>
    </contour>
  </outline>
</glyph>
<glyph name="J.alt" format="1">
  <advance width="1441"/>
  <outline>
    <contour>
      <point x="792" y="1500" type="line"/>
      <point x="1672" y="1500" type="line"/>
      <point x="1672" y="1427" type="line"/>
      <point x="792" y="1427" type="line"/>
    </contour>
    <contour>
      <point x="1032" y="1500" type="line"/>
      <point x="1473" y="1500" type="line"/>
      <point x="1252" y="561" type="line" smooth="yes"/>
      <point x="1180" y="256"/>
      <point x="744" y="-20"/>
      <point x="422" y="-20" type="curve" smooth="yes"/>
      <point x="208" y="-20"/>
      <point x="10" y="128"/>
      <point x="10" y="368" type="curve" smooth="yes"/>
      <point x="10" y="552"/>
      <point x="124" y="680"/>
      <point x="284" y="680" type="curve" smooth="yes"/>
      <point x="434" y="680"/>
      <point x="536" y="584"/>
      <point x="536" y="432" type="curve" smooth="yes"/>
      <point x="536" y="302"/>
      <point x="421" y="186"/>
      <point x="273" y="186" type="curve" smooth="yes"/>
      <point x="193" y="186"/>
      <point x="136" y="221"/>
      <point x="113" y="240" type="curve"/>
      <point x="152" y="157"/>
      <point x="246" y="53"/>
      <point x="422" y="53" type="curve" smooth="yes"/>
      <point x="664" y="53"/>
      <point x="753" y="232"/>
      <point x="812" y="500" type="curve" smooth="yes"/>
    </contour>
  </outline>
</glyph>
<glyph name="R.alt" format="1">
  <advance width="1619"/>
  <outline>
    <contour>
      <point x="1460" y="0" type="line"/>
      <point x="1428" y="0"/>
      <point x="1293" y="0"/>
      <point x="1221" y="0" type="curve" smooth="yes"/>
      <point x="575" y="0"/>
      <point x="1223" y="733"/>
      <point x="750" y="733" type="curve" smooth="yes"/>
      <point x="641" y="733" type="line"/>
      <point x="641" y="770" type="line"/>
      <point x="891" y="770" type="line" smooth="yes"/>
      <point x="1677" y="770"/>
      <point x="1144" y="73"/>
      <point x="1410" y="73" type="curve" smooth="yes"/>
      <point x="1431" y="73"/>
      <point x="1460" y="73"/>
      <point x="1460" y="73" type="curve"/>
    </contour>
    <contour>
      <point x="460" y="1500" type="line"/>
      <point x="891" y="1500" type="line"/>
      <point x="540" y="0" type="line"/>
      <point x="109" y="0" type="line"/>
    </contour>
    <contour>
      <point x="-70" y="73" type="line"/>
      <point x="760" y="73" type="line"/>
      <point x="760" y="0" type="line"/>
      <point x="-70" y="0" type="line"/>
    </contour>
    <contour>
      <point x="870" y="764" type="curve" smooth="yes"/>
      <point x="641" y="764" type="line"/>
      <point x="641" y="807" type="line"/>
      <point x="770" y="807" type="line" smooth="yes"/>
      <point x="1062" y="807"/>
      <point x="1130" y="1121"/>
      <point x="1130" y="1279" type="curve" smooth="yes"/>
      <point x="1130" y="1377"/>
      <point x="1082" y="1427"/>
      <point x="930" y="1427" type="curve" smooth="yes"/>
      <point x="260" y="1427" type="line"/>
      <point x="260" y="1500" type="line"/>
      <point x="1070" y="1500" type="line" smooth="yes"/>
      <point x="1332" y="1500"/>
      <point x="1561" y="1421"/>
      <point x="1561" y="1200" type="curve" smooth="yes"/>
      <point x="1561" y="921"/>
      <point x="1272" y="764"/>
    </contour>
  </outline>
</glyph>
<glyph name="fj.lig" format="2">
  <advance width="2931"/>
  <outline>
    <contour>
      <point x="1837" y="287" type="curve" smooth="yes"/>
      <point x="2100" y="1734" type="line"/>
      <point x="372" y="1734" type="line"/>
      <point x="372" y="1884" type="line"/>
      <point x="2915" y="1884" type="line"/>
      <point x="2564" y="156" type="line" smooth="yes"/>
      <point x="2459.92" y="-356.39"/>
      <point x="1859" y="-860"/>
      <point x="1327" y="-860" type="curve" smooth="yes"/>
      <point x="954" y="-860"/>
      <point x="618" y="-626"/>
      <point x="618" y="-352" type="curve" smooth="yes"/>
      <point x="618" y="-102"/>
      <point x="831" y="86"/>
      <point x="1077" y="86" type="curve" smooth="yes"/>
      <point x="1302" y="86"/>
      <point x="1490" y="-81"/>
      <point x="1490" y="-274" type="curve" smooth="yes"/>
      <point x="1490" y="-395"/>
      <point x="1431.08" y="-500.053"/>
      <point x="1382" y="-553" type="curve" smooth="yes"/>
      <point x="1317.85" y="-622.205"/>
      <point x="1236" y="-670"/>
      <point x="1171" y="-682" type="curve"/>
      <point x="1220" y="-692"/>
      <point x="1275" y="-704"/>
      <point x="1306" y="-704" type="curve" smooth="yes"/>
      <point x="1716" y="-704"/>
      <point x="1746.85" y="-208.973"/>
    </contour>
    <contour>
      <point x="2367" y="2945" type="curve"/>
      <point x="2338" y="2950"/>
      <point x="2255" y="2955"/>
      <point x="2218" y="2955" type="curve" smooth="yes"/>
      <point x="1881" y="2955"/>
      <point x="1606" y="2712"/>
      <point x="1520" y="2212" type="curve" smooth="yes"/>
      <point x="1126" y="-49" type="line" smooth="yes"/>
      <point x="987" y="-844"/>
      <point x="438" y="-1065"/>
      <point x="-94" y="-1065" type="curve" smooth="yes"/>
      <point x="-549" y="-1065"/>
      <point x="-819" y="-791"/>
      <point x="-819" y="-537" type="curve" smooth="yes"/>
      <point x="-819" y="-287"/>
      <point x="-672" y="-119"/>
      <point x="-426" y="-119" type="curve" smooth="yes"/>
      <point x="-201" y="-119"/>
      <point x="12" y="-258"/>
      <point x="12" y="-504" type="curve" smooth="yes"/>
      <point x="12" y="-640"/>
      <point x="-37" y="-721"/>
      <point x="-91" y="-779" type="curve" smooth="yes"/>
      <point x="-140" y="-832"/>
      <point x="-209" y="-877"/>
      <point x="-287" y="-897" type="curve"/>
      <point x="-258" y="-902"/>
      <point x="-224" y="-907"/>
      <point x="-188" y="-907" type="curve" smooth="yes"/>
      <point x="99" y="-907"/>
      <point x="274" y="-664"/>
      <point x="360" y="-164" type="curve" smooth="yes"/>
      <point x="754" y="2097" type="line" smooth="yes"/>
      <point x="893" y="2892"/>
      <point x="1542" y="3113"/>
      <point x="2124" y="3113" type="curve" smooth="yes"/>
      <point x="2619" y="3113"/>
      <point x="2899" y="2839"/>
      <point x="2899" y="2585" type="curve" smooth="yes"/>
      <point x="2899" y="2335"/>
      <point x="2752" y="2167"/>
      <point x="2506" y="2167" type="curve" smooth="yes"/>
      <point x="2281" y="2167"/>
      <point x="2068" y="2306"/>
      <point x="2068" y="2552" type="curve" smooth="yes"/>
      <point x="2068" y="2688"/>
      <point x="2118" y="2769"/>
      <point x="2171" y="2827" type="curve" smooth="yes"/>
      <point x="2220" y="2880"/>
      <point x="2289" y="2925"/>
    </contour>
  </outline>
</glyph>
